<mxfile host="65bd71144e">
    <diagram id="ao1ppBOnWySMGOcyBSpt" name="第 1 页">
        <mxGraphModel dx="743" dy="619" grid="1" gridSize="10" guides="1" tooltips="1" connect="1" arrows="1" fold="1" page="1" pageScale="1" pageWidth="850" pageHeight="1100" math="0" shadow="0">
            <root>
                <mxCell id="0"/>
                <mxCell id="1" parent="0"/>
                <mxCell id="2" value="" style="shape=image;verticalLabelPosition=bottom;labelBackgroundColor=default;verticalAlign=top;aspect=fixed;imageAspect=0;image=data:image/png,iVBORw0KGgoAAAANSUhEUgAAAaIAAAGdCAYAAABQJ3cXAAAgAElEQVR4nOy92ZMkR37n93GPyDvrPru6+kKje8DBcICZAYfEHMQsMRwOJJJDGSmZyUxPazKZaKalHvW0/Au0MtmuicYXifsgaXeNJprENRrFU8QcxBwGzgwwAwLgNNBVXfedZ+UR4a6HODIyK+/Kqqzu8i8sUdkZ4f5z94j4/eL3898hFh/c1sViETuewHVd0ukU2nFwlUJLjW3HQIPrumjtojS4ykFhE4tbVKtVpBRYtoVSLkJIBBa4LgiF1hqlNLFYDK01QlhoJdAa0Npvp3Hdun9eHHC9dloh7bjXDhBaU1d14paN67o4SmHZFrYdQ2qJ1pq4HUMIgZSCar1GrVYnlUqhtQJACIFl2yhX4boulmVh2RZaa+puHaVcbNtGSun3Y3Faq5HJZKhUKhQLRVynTjqTpV6vYyFIJpPUazVcx5u/lF5/Gkhn0iwtLXFwcMDB4SGxmLdOUkoEAu26ALhKgQYpBUIIb75IpBBorXEcB2lJfw6gUCitAbCE10a5Cq0FiWQCV7vUajW01lj+XITfF0qjlEIDUkjvmgmBkBKEQCnQWiCERkqNlBLHcYnFbLR2qdfrKA0gEAJ/bQVor3/btrFjNsqtR+Zl0YB3LoC0LIQFGhelNKBxXYUQFkJI71w04N1LQgukFiFt75hGCO2NXXvn4a9gQE8Irx/trxn+/RfcE/50vFUXwm/unx808W5aQAKy6VgUQihv7cJ7AbTSKK3D+zCg641LoNF+V6JBS9N0rhaNn7TWCCmRUqKUQmgXKQRCSCxLIizvWkrp9a+Ujozfby9k0FuDhtb+vaXQSiNdb7ZKuyilAImQMmwrpEDgXyfhz89fTBfCe1Rr7xlHa299/b9SWpFrFpmvVmil/DWymo7pyHVr92/vR4/HBL8J4a2wd+t49L37X/jPujcfJRrXx1u7Znh8sDFW4T8/0l+H8Jjfj1ICKfw5e702z1MIrJh3DZVSSGnhug6u67WXWoL0xui4LolEzH8ONUIIKvWKx8MsC61F2GeDlgppau3iOi7Skv450XvRW2MpJPF4HI3Gdby5BnxHuSrsW/m8VyuN4zpY0qLu1KmWKwgBqVSKWCxGqXRKve6gtSaRSOC6VUCTTKZRyiE9kWVv7wA77qaYzGaxY4KFhRlS6TS/9Iuv8PzzD0imEqjowgUXSUvAPnORmqH6OyaU119T31G0/rtTv5bPVM/ePBBlIm04R7sRtu+mCR6vsvwHsXWcPgMVTofWGqUdNG7jfC0ibQMm3L6ttw46cr5o+XcndFuDKPNu9+9u7Vt/b23bqV0/c+2H3qBovWZBf9FxD0tj2LniiSPRnmaHn712QjWeIe8HGnPp42aOjFnoftuAFpH7V/gvBVr4z3E3+q1rdN7rGSBY49a+gnF040u9unbb9Iu/1hKwzh6D89FsaaubllIizvDL0dDVkXup+b6TLX970Yz+W4KIAwKpIVcu8td//de8W3sXceu5T+pYMkkyGecXfuEz/NEf/gFVNApwtYNqdxNp702s4yS8l1M63Vj6XBemPYSW2EJ0vRXcDseiLHyQY8Fxi34f22a4gNNpjSJvc53RnkHrHiMWXUfbhUl2va7D0x12rron8xpuroFCJTrev8PS7VcgDE5TdGT43en2flaHpTueuXa7l87Ll0RH5nueuQ5L8+rOVemzL9+elcezAgU917QnWN9//58Qz93/eb2wcpOvfvUr/Mt/+T/4D2Dw3qZbRXBjIr2fxXNgOEHVMDV0OiHQJEYF/4HosEaeRtSFnhborm80dJeQQ6EPrenCrmsPPDNz7UF35PM8B81x0X0q59owcw1Edxw0x0VXBAKw3TGNjJiaXBokbCE1qVic/+w3fwuhIWoW1Xi21fb0RO+Jtm3bjyDowZw7ket5hu7rrNES7nKn+PsQnZv2WOO2bft5Q+ii5/Wi2ZZuP2aVHuaeqzjXoWj2oDsUzX7onoNmR7pP4VwDut1wLr40ynupH7pdaAZ0u+FKzbXlNOFRUBpsKQSxWJz79++3OVV1GIrsg5+fR/sYpl0/wivYvBsV+rGldx9XexXZ77dr19E9okHQ7SHv9jpzUXSv6lw1/THiQeiOgyYguu9LPVNzvVC6nXhHL354UbxwHHSHp+k1O7t5IgXYUsawpSCTtEPLVXgde13PbrhIE87VIXmxGIeJbFzX9arN9brQHBfdcZh4L5KumWtPmlI3H5a6IbJsKW20iLVtNPRgGr30c9LI0PNl/gpCd1vHrmvcjzbWqdNuqn6v9uOgOwaanl169HS70gw0w1HQjIy9l/lmZHRb1mscc71Qui0eYK1D6kpzWF7YQ6Pp+bxeAN0R0pTa81C2tQBXev8QormLVv/9JvS8jv2YeNoOrVfH58RlCsfejKyr8OzatNf6tmOGgp7zP9d17WZ+Ow/dccx1GJq92rcxQZ4Z9iB0uwiB6L/76bIvc1a7f0fptoyhV5cXMddz0+3hftyJyIXww24u4f10ex4ePCzv77VndfarAGxXSDSyEXag+7XNnReXqy1dPwz7Nv+00RwXXdHGfXbYvYeWLjqTpDHPc9Lpl25IUzCS+fVDc1x0BTT40uhDTLTyFKPgbzPGwQ/HzYODNZY9o1INDAy6QGtNqVTizTff5O233/aycViiKYNC4+RAS2uylNO/EFWNj+ikBUZp9dOvoHskXEBTR2i2msVGTTOg60f+iVZnlZZ2I51rlCad6fZJs+xnFvjMZz/D1772NWamZ5BSdBBG1xdGEBkYDAmtNe+//z7f+c53iMVifOUrXyEej6OUg1Lu2RfvM8xLtHx6UqThQRgIhk6nDsKc+81sEaXbhvbIaLbSbckacWF01dnvnej2SdO2Y7iuIneS4w/+lz/gt3/nt3n48CGxWA+T27VAw4vZCCIDg3Mgl8sxPz/PwsIC4OUiC3IUtkfrxvogZsWAkbbTToY0T7bV0s6c1IbmOej2RTNKt8ee0MjoWjQEULvticHpaqURCCYmJnj99df5sz/7MxKJBPfu3g2z01xvzUhG/m9gYDAw1tfXEUJw8+ZNLMsKE+V2R6DVtJq7BoGICLAgZ95F7pH5dLT/Ifq5DLrWJdL0aYxwrkIIbNvGsi1efvkz/OiHPyKXy49uyM8AjCAyMBgQrqtwHcW77/yEn/70vTMZmQ0M2kErTSIR54MPPqBSKSPkddeGGvBNcy3ZsBGeO3eLC59ZMwMDrzxAtVrFjlkkk4k2QmhAE85QWtGIIDSd0wE/QzTHRVfoMI5La03MjpHJZnrnxbwWMF5zBgbngPZe2Py6Q0JE6hyNzYXd4MqixeFBGk3oDMxyGBgYGBiMFUYQGRgYGBiMFcY0Z2AwMEQbryrjrGBgMBCCWmzCaEQGBgYGBmOGEUQGBgYGBmOFEUQGBtcEvYNtDbqhXayYEKL3umrZ5mOuRdSb0Bbaz+Mk8H3evTgiI6MMDPpFkC2hHXq4c3dN8XM2n5wQQULVfqrdCRzHIR6PY1kWSimUUmgtemS+7hTX1E/pi+a5eOP123Sba9dYql6ZsLv02yuFUsccdgqtFSoifIQQiEhuQCEkSqnwWGf6rbzUCKEQ/q3oOSto6d9j/eaAMjAwuGzcvn0b27bZ3t7i9LRMt5xvngCAO3fucOPGDWKxGNvb22xvb1Ot1gGYmJgAoFwu47qDBHr2l2vu3r17CCHY2tqiUqkM0H87RAXG5cRqPXz4CebmZsOccO+++xPy+RxCQDqd5d69e6TTaQD+8R//kVKpZDJsDARFIKSN15yBwVMCy7IQQoRv4d2gtWZmZpaZmRm2trbY398HvKSsXllgwfzCAlJKtjY3OT09Hfl4Y7EYUsqQkT9t2N7e5iR3zNTUJFNTUyjthhre6ekp6+vrWJbFrVu3xj3UpxR29NvTeZMYGFxlBG/Gw+zLNNq2Py6E9FPE6K5v4Ol0mlQqhVKKer0e7QGAtcePcZWXJ08Kida643jPHhudRqK1RqC7WzAj0+x3ST2hMew4JeXTU/KFPErB1OQswueVQkhc16FQKABw69atp1bYXhUYjcjAYFCEJuzopxXePs7t27cRQrK1tUW9Xufu3bsIAevra8zNzXHz5ipCSBxHkUjEKRaKPHmyQblcZnpmiqWlRSzLIh6Pk0wm2d3dQ0qbyckpVldXSSaT1Go1kskkm5sb7OxsMzM7w/zcAhMTk9i2zfLyEktLC2xsPOHo+Jjbt24zOztHPB7nYP+QzU3PdKbRzM7Mcuv2KolEnFqtRjwep1Qqs7a2TqlYYnV1hRsrN3Acxy93Ifnoo0ccHR2SyWS4ffsO2WyWer1OLGaTz+doFPPzTWqRfZtgs//GyjLZbKaxxApqtTo7OzvMzE43HQvWd2tri3K53GHtAQQvfupTJBIJpJS4rkZKi3w+x8aTDU5PT3nhEy+wubVJoVBAIPnkJ1/k6OiI/f19XFXHkjEE0heEjW2LwXLFtWqwxnzXCiOIDK41AjOXlJJCocCjR4948uQJ1Wq1SytBpVJlb2+PpaWljt5Uwd/W8hDaf/uXlkRakr3dfXZ2dpmbm2d5eZlsNkupXGJqaopiscj29jZKKe7duweI0OzmOA4ffPABxWKRubk5stkM6XSao8MjDvYPWVm5yfLyMpubm+zv73m0tebx48c8frzG/fv3kdI6owXlcjlyuRNyuRxzc/OsrKySTCSxbZvZuTm2trbY2dnBdV2ee+65cJ43b94kkUjw4Ycfks/nefDgeaTsoZH4h23bJplMhmPRGuLxRFheIx6PN+r3CIHWbk8tRGvtO2doPvroI06Oc9y9d4/p6Wli8Rinp6fNIiFyzYL2nTRE44A4WjQLIoER1gbXClJKjo6O+Ku/+is2Njb4/Oc/z0svvdTVpKY1OHWXt99+m1qt1sEzK/B48wRHO2GltaZeq1Mul6nVqlSrVZRyERIsaWFZFsViwaMB1GoOiUSCmB1DSptMZpK7dxIopZBSorRLPl9AiAr9Z5k+661Wq9VC54JqpYpyHTSaTCaDZdlMT8+SyUwghCAej1MoFJHSBgT5fJ5KpYJSCsd1sEWbAoFC+ySFX/dOsL6+xsaGDPdgtALHd6AolUpsb+00eeAp7QK6q2aitUIIqFQqnJ6eorRLIZ9nanKqoxBrqsGnAw3Id7cOXK/7KqZrkt8OAls3lXrovQk6PjRShl8egod0HDQv+0aOekFdJs3xznV3d5dvfvObzMzM8I1vfINkMtlXD7WawwcffsjR4WEftHSYqRsUgk6xJzr8EzBc245hyVi4j6NchRACy5Io18VxPCGhtMJ1nVAD0KE5TDW5gIuQ03Zbb+GVgNG+SUpoLClJxBPEYjHq9bqnqfjjUUr5JjbQ2kUIjZQQs21EHxqRkIIHz32CqamppkOnp6d8/PHH3Lhxg+np6aZjjlPjo48+8vdpuvOtYE3AE26e+3uwHhb4c+051uZeW763vGhE3dF1B/5xrkduHPxwGJoNz7huxxoakY4SMjB41qGpVE75/g++y+TUBF/72q/6zCoQjKOCpzXE7Biu473hR7UjIfAFVOQjNEo7uI6LcnXI6C1LIiTU6jWUcqlUKzx58oRSqeSZGIXuagprzC+AHzMo/LIWQUxhB7NIvpBncnKSg/0D9vf3UUphWRauctDaY/apVArbtqlWq7jKxRJWZDkj6ysIv2ut2d/fJ59vVC0VQuC6LvVancPDQ4rFYmMeSnvr4GuKnefraUWNlwA/3ksEf5VXkqFpfYIBdO26f2jRHKvUSShdczxFe0TjuIDjUK/HpdKPi+b45rqzs8Pc7Cx37tzFM/Nof19gdLF0tVqVmZkp5ubmqNVqZCeyFAtFpPBDI6XHlLXWOI6D6zZchGv1OkvLS8Tinhv0xOSkpwFoKOSL3FxdYfnGMkeHR2SzWYSEg4N9yuUylrSIxWKey3fLXGZmZklnMqTSKQSSGzduUK1WOfS1uyhD1miPoaM52D9gamqa1VurJBIJyuUy8wvz7O7ucHR0SKFYYGVlhZs3V8nnc8TsmO8R1104aq05OT7uuOYnxydnf+wYiEqo8Wg0rnKREfOdlF4QqmcG9Ux3C4sLWJbF/MI86XSa4+NjhJAsLi6STCWxLRspJUtLS2SzaY6Oj3DcOjMz0yTiCYQQLC0tMT09w97eHtVq9RLiicbBDy+O5lMkiAwMRgnB2toTXNfl5s1GHMioN6E3NzfZP9hjcnISATz++DHl0zKO45DL5zmtVCiVSgghKJdLfPzxI9/VWrO1tUE+lyOeSFCr1Tg8PKRer1Ov1zk9PWV/f590Jk06nSZfyFMuFyNu2p6WcXR05HnERbSh8mmZulPn5PgYy4ohBFRrFeq1OlorTssV6nUHgFKxxKOffeSZALXmww8/IJvJkp3IolzFk/UnnFY8z7Xd3V329naZmZnBdV3Wn6zjui61ajvNpSUoNtyfHuEF0JrNjU201qHzST6fo1arUKmWEULw3nvvk81mSaVSbGxs8OTJE2rVGkopSqUSxWIR13XZ2tpCWhKtVbgWtWqNarVKLp9DKxHu1Xkeev4eXWgWVeFUQyFqtpBCdBFERoU0eLYRpLwZsjXgElRqbUKwUa0FUgicuuLw4BhoeGRJYVMuVSiXggwJAtd1KJedprfpQjEPRdrAy5xQKpYoFUuR373n1gu6bHj+Cd9pIGCg7YUDVKsVgvQ1CHwhdeppNlJjC4tqtXrGq1BggdIodDjXcDlC1+eoCbLpjKCTNsdov/EfNXG1HBJ+TBSIUMgHa1qv16jXa/55oLVDoZCjUMi1dAKlUvFs55HjhUJk3VvH2NTsOm95tMqR9mthNCKDa4moa+9loJ1zgvdbtJaRx6Q9Bult/HdMudVx2KKrVtcYR7SD/lL2NHKttcdgK9lKkzbfh0fgNn826PeyUwWplr+N/SmDAOoiBdHT4tVxXozD82uc3mbXZa7jRbN3W7t5X6/1GAbeGl7neJRx8MPh0CSIzG39tGEcLtfjpPusY5zOG9fFKefqM+XrCBs8tuJKiIVulSC1QrcLRusbz5ZXR2eM6oFqtZ03Rda1fHqNp405p1OzjkMfAc1OdLsuVyvdYB0uWjPqtv69IGiuL6MHML0MOZ+uZRPOT7OTyVJ32+/oOZxxzPUcPGEQuh3PlTTH0vgpoS7FjfsqCt12Y5Jmj+hpgFIK13WxbdvfN+gGEfnbyiA7IcgC0PLbQIKo5W9Puu1otqPbYF5esk+jhRkYPGswgugpQC6X56233uIf/uFtdna2+2jRur/QSTDoyJtcN6HQD6Jvu93o9qLZhq7w7P2xWIzn7z/gV37ldR4+fDjmjMf+pnPHTXcDgy5o+xJ2fWEE0ZVBs9lCa6hWarzz7jt861vf5M6d27z66qvEE7H++tKtQmFQNEf69z69lc6I6Lb0Wy6X+cu//Eu++93v8sYbb7C4uOhHzQ9KU4C2InLE91Xuc4zBf42xBmM3MGhFYJ4DULiqTqVaCeOODIwgurKo12v8+Mc/5rvf/T6vfO7zfnoXEWG6/aJf81w79CmE2jY9z15Oe7pae4k3X375ZR4/fsy3vvUtvvrV1/08ZJclBDSuclDKaUnNA0YjMugFLxGrIJmI48mgbrnYrg/MClxRfPjhP/HNb32Ll15+Kax0ed3ZXBAbYts29+/fp1Ao8J3v/D1AxwzXFwEpJMlkkmKxSC6XM/tWBn3DdRV7u3vU64OUZn/2YYNCCIUMn+Gnx/f8WcXx8TG53AkvvfSSn68rsBoF2s05NJVnBEIIVldXUcrl8eOPuHX7Npa8HAU/qI761dd/lbX1NfL5AlJYnZ0p+tYOR3xd+6V7Lq+0K0BzILojDCQdiKb0UwVt8+u//uvMz8+ObhxPLRraoBQd3DHVhbzk+anpLx2XTTe6kT04SqUSOzt7JBJxzj9235V4qM85GIW4eLqZTIbT01O2t3ew5HlCDQZBY+9tenqG3d09Hv3sUftUQUENm9ZKrp3mHbTxvtC49v18ImvWlm6XT1h35xx0x0FzaLoBBqHZY65d7neB94KyublJPp/jufvPkUwGz/ZlY1w8uDuM2nPF4LqK09MqjuOE1SmN6aczXNf1E0wGsUZtmNUF4ktf/BKTU5N87/vf5fBoH6VGbXLph0mPeq79CoZx0B01zSGE34AolUu89dZbFItFfud3/gvm5+fPPepnDZfsrDAuuXfZdIffqLcsSTzej2ecwXjhlZFOp9P85m/8JgeHB3zw/ge89957lEplLMuiEeQbvR9cOr+RRhKDttYo6grRomG0o9t9Lt64Arr9Mt4o3fPSvKy5RgSLGEQ7aDfXKF9xzoxda42Ukps3V/md3/kdVlZWcN06nQsjXgaupu5hvOYMDM4BIQS2bXNjeYXlpRu89tpXCBliO2/FbmZHLVqODxnHNYyX5HnpjoMmjIDuIGYq2Zlmh+vaKnBs2x6Q5vWAEURXEhETxbVP3NgLrW/j/UKDCMo4DEOz0ejsy22g1bRj0t0YrmycK4KsEnQ5v9Pw9OAMuonuEDg3zad9ru2vq1cGyrs/G/X5onFFBnBlBZHi8lXI4Ma47MzdMKwZz+Bq4ay5xRdEovW3Th20+8eQ98bQt9Q54r/ORfMcHZyL7pBOLm1pdhhIWzNcv3xmHHzp8uleTYOhgcElQIhx2uoNDAwChBqREOAgsbR7BR7OZzVzd6v6PmhKmoj5YmjX6rMmBK1FGBBqWVZ4/ZVSWJbluyYLBF7VTq10oy+hw/OFEFiWheu656h82scMtA6rbjbT6bXP0Fjvs21HiW7X9TwZJwyuLi6KfzzLDl4Ny5cdeoNofEbXIZ2/wTMJISTZbJb5+Xnq9TpbW1torUkmkywtLeE4DpubmwBIKUkkE8TjcdCgtEutViWR8H5TSjExMcGTJ0/GPKveuKwsDAYGBr1xRfeIDC4D8XicxcUlJiYmqVQqWJZFJpPhxo0bZDKZUGPIZDJ+tocCKysrLC7O4zgujuNQKOSpVqtIKSmXy00aUSwWQwiB67oXwvjPm9YnlUqZpJMGBmODHf1mtJ+riSDOIXJ9BMO5q3aAbdvEYjFc1yWZTIYCpVqtUqvVQmGUz+epVmrUqjU+evQRxWKRbDbDRx99TCqVYGVlhampKbTWxGIxpqen2dvbY3t7+0JNdB6ipq52Zq/25rpqtUIiESOVSvnHzXNgYDAuGI3oUtHKKAM37Va0BhRGvp87F1lAXxGLx8hk0jiug5CaRCLO9PQ0qVSKeDxOIpEINQ4pJaVymWQyyeTkJPNzs8zNzuEqxfHxMe/8+CfMzs4wMZnl448/xnEcj9oF7DdG+xysf08oaQ3f/va3cZw6b7zxBsZ70cBgHGh45hlBdGURCKl2LsGjgCAei1Ov19nb22NhcQGtIJ/PU6lUEEKglAodECqVKlpr4vE4MTvGo0cfo9FMT02zv7ePRvvZBDyTn5SSer1+wXsxLYK9T8Vmc3ODu3dvs3LzBko5WFb0MTDCyMDgctAwixtBNEbU6w4nJ0ec5E6o+oxea832zjaFYvHC6edyOUqlEkIIarUatVqdYrHY5Dk3PT1NOp3m4OAQS3p7SNValXw+j2VbzMzM8PyD59Ea4vEYUsLs7CyFQoHt7W0ODg7CfZiL0I5qtRqPH68TjwcmtohHHxohvAJ2juNQLBTZ2NwgFovx6qu/RDqdvgIeogYGBs2CyATxXyx046V9c3OLv/6bv0YIuHP3DqlUwjtFa2rVGq5v2roYeJpEreZQrdbJZDIkE0mmJqeZyE4yMzMTakNSyjBn1t7ePgJPQ3rh517g6OiI9fV16rU6M7Mz3LlzB9eFg4MD1tfWvQqUwvYnfTE3luM4nuNEPcj11ULHz2PmOIrDw2M+/miNO3fukElPIIV19nwDA4NLh62b/MWvctqJcWU+0KOj6QfZP3r0EX/3d2/y5S9/iQcPnvfjYoJ4HM3a2jqlcqHNOETLJ9JxaxqZPhj/5OQkd+/eJZvN4rouu7s77Ozssre3R7FYxHEcZmdnmZqaYm1tDYBCvoiUksXFBexYjEKhwOzsLLOzM1QqZbTWFIt5pAVKt+51jU778Ex+mlgszq3VJb7whc/3JKG1plar8e677/L48RpTU1OkUsmRa0WeNbJZM+uMc+ZNa+pqmNxtQTLPUdAdB81x0e2fV3r1q0ateY+DHw5Ds1uWnMaxxhk6SsjgIqCUZnt7l48efcwrn3uF+/efB/BLPVj0zrc1SGLI3tBac3BwwHvvvcfe3i6ucojFLebnZ1ldvYGU2vtYoFEopdC4SAviiRi2bZHNZllYWKBcLrO9vU2lUiEej7O6uhqa+K5SBoN4PM7nPvc5isUib775Zsse1iCZpztDCJrm3fdH0vwRA3zkkDTHRfeZm6vu8DEBzP3gKQqiiBQWuzQEAb6jgZSCfD7H2voazz94PmTO3t6QQuvAOSEo4NXuM7qbulAosLW1RbVaRWvQSlAslFlf3+Dw8ATLigMWWgmculf3JxaLcevWLRKJBK7r8MILnyB3kmNtbT3st+jvb924cWNkY+0M5b2l9vG8RzNAvPbaaywvL/Pee+9d8PiCe2j018/gOmMc/PDiaHZxVniKZNRTAq09F+kbN5ZIJuN4e/jRGJhhNZ7zpPzxGLNlWTiOg1KK09NTEokEDx8+xLZtTk5OkFISi9ksLs0Ti1s8WV+jXD5lc3PTTwUEtm0hJJTKBYrFAlcxeUEgjGzbJpfL+79G6gCNAqMKSzpXH+d4Ex+a7jhojovuoOapKLHr9DLS3zoZr7lLRJAjLZ1Od4joj+7/RLWiUXL0YD/JE15aa6rVKjs7O95R39RQqVTY2dlBCBFqOI7jsLe7x/7+PpXTClJaYbyQ1oqT3DGV6inKDTS7y3jghhMggRPGKAJuta+QhVs90NnKHS5JH2M+z57ReZxDhqU7DprjonuGZucxNJulLzN4ehxVDIbDBeOd0R4AACAASURBVAqip2Uz7bxodSTojqCQ2vj3TERYMsd1XUqlEtAQlrVajYODg6YWwWY/ePPwzg1csyXVSpVqpdpkcrzqaD/G/gNctfZr0wRCSINW/t+mvgIovIwZ/u+6231zHlPeefa6hqU7DprjottCUzTePKSUSP+5iL7ojOeRfzqEUZMgGjdrvA646sx5UAHZmI9u89uzf0cJIajVHTY2Nnj3nXdZW18Pg38JvOfOeHipxm9dBdF5tMrzmBqHpTsOmnA+J6th6bah6QsjrRo5EKUU3Llzl1d+4RVWV1e9YG/jwOAjEtAafR5k0z2kGLpoVAuRy8M4aA5wU2kQWKEWMR6cZz/popjmAPAZt2dcbJd5giEz9kTTLfU3F6013/n23/POO++ytLzM/NwC8/OLnGXI/a15wLzGry0bDIPm6+YLJa1QWvPo0SP+/b/797z22mv8wi98nmQydQkjuuqaUFMZCP8RNPe+wdOGK6Bc2jGbGzdusLx8AyFkmz2nlg0kH0bYPEPQAt1BGxRCIlFkMxlef/11/uIv/oKbq7e4d/eeuQciMM4KBgYDIhA2//AP/8DOzg7zC/N+JopGoK0Q3bWgq26iNRgAfWYOUcrli1/8At/59reZmpxibm7u4sf2lOCq624GBl2gWz4+LthKqFE4bo2NjXWOjw+Jx21P8KDCQMaLSmlkcAUhfIcVLRufNjE38XicVDrN2toalUplLEO9qjAa0YWiJVJf6GaPKYPBISJCR7QRQgNBRtzb/FD7floJiaM0iWSCZDLpaTdBGJiBQRMkQki0dqnVamityWSypiBjC4wgMniKERVE0dili7W9CyGxYza2LdG4aO0GBy6UrsGzAdv22G4QKmEAEuF64ZPmbe7KYHl5mU9+8kXW1zbQylP5xYVZUVtMCl0/Y3hoWk0e/jiEEJycnLC0tMRnP/s5LtMdVmuFVg0Pu7Ht94Rr02HuwfGumWBHLLij1+sirkmvuZ43qemgY+k01yYzHXi5JC2ksL04IymNEGquR+QF2AkBConEAQRSywvgO+MIOB0H3dY39WisjYp82jOBRCKBEILNzU3u3LnjFZ3raDbqxzQVpSNaHubosSDYsks/WgxgEuuDybVlhJE9logpLsrwpZDkcsfADBMTk/3RaiWBF+cxHL/0s1+E38fAVIK10dHrMgpEr62JeekLXZ+b1nOjfACe/aD/TohWaI3sWWgRMXFce2l9EfD3iMI177zGDx88oFw65Uc//hEvvfQSjlP3mGa3vs8IhotmIp2E0cXRDYTRo0eP0Bo+85nPtFRY7bMfwNznBgZXA5e8RzQuKTyOrN1wnt3rRDLBz33yBQ4PD3nr79/ic698FqV09/RAZ34WEY0johE1ndhyrCtjFi10OmgTTTR7MfoO57T8FMy5Vqvx/vvvI4Tg61//Ojdvrvbo/xpD6PPcguekeckCfhx0xzXXc0FyFcv9GGeFKwqtNZOTE3z1V1/n+eef5wc/+D4bm086uH32MpP1EEShqa4P01xIb1C6g5xztt+gSuzs7Cwvv/wyL7/8Mtlstkff3al6Zq1nfHN0HG7k4xCA46I7rrmeC1fBLNcMI4guDNE9hHZ3amAGbZ9GKUgqGovZPP/gOZ5/8FyYLVo3vYVF9mvOMJ3W/aBO4+xXEEU3g1typg1Mtx39s/DydjXoSCmxbfv87q8C351+GC7iX9uL3JRvh6b9tEHG3irYI/0EMTBR5iR6vWD0gfMKwOhch9p/CX/gwq9Pr7lqv+hl8NKjbf+3qycQLhdNzgoGVxWBMAogpcSyzpP/rxdGoeFcJfROOvdMZDgQzc4co/DGar33LqpNa3vocU36FHCNvp6m+7Udno7s2efFFRVE41j8q+RN0kArUwkf0tYHbFQ1WXq+3Y2Qbqc+m/o/rz9BZ2GUyWSo1+s4jhOWNX8aIaVkcmqCWq1KuXQKwMTEBLZtUyqVqNWqbdtprUmn02SzE5SKZcrlMgCTk5PUatW+ov+F0ExOThOLxcjn82GZkGEQxNUkk0kymQlOTk6o1+tIAdPT09RqNSqVCkq5NJx9GtdMCEEmk0Frl9PTU79go8X09AyFQuFcY/NwmXW2Wuk+2/zwanHdZxKB2cOUib5qWFpaIhaLcXR09BQKIS+GxZIx4vEE83MLTE5OhSbLxcVF7t696zNmj6mEc9QijE+bm5vn7t07zM/PhYGWi4uLTE5O9j2ShYV5lpaWSCQS/TXoEbs0NzfHvXt3WFm5QSKeQGBxY3mF2dl53yLQaNuqBc7NzfHgwQMymQwAUtjcuLFCKpkZQYyReYYvCi3BQo232/H6VYyrhMSo6UaFUGv/LXb5br34VVObPn5GmvDT7px+P2E/AiGsLh85Wrqd5tLU/yjWv30nCwsL7Ozs8KMf/egcJqXW2LALTOEUpIiKfFxVRykXIQQL8/NMTGQBHdlP1OH1k9JGCAuNRuOitIPWGq0Ec/PzZCeyCCmQUgwUcKmUO3iWgDO52RpmuaBk/fLyEhOTGYT09sOUcsKEs0IILFsipWgy6Xn7qgmmpmaw7XjjHhK99j8vCEE15NZ7pG9LwkXwpatH94qa5gwMLh6JRIJXX32V733ve7z55pu8+uoXSCTiQ/YW7K+1usZfDoIS9NlslmKx1BiV1iQSCRYXF5mdnUVKSb1eZ3d3N6zA6yqXWCxGJpMhl8vhuoMzbCFH4OAQgVKKeDzuz6fYoCMEiUSClZUbLCwsYFk2+/v7bG9vh6ZFrTULCwsUi0VOT09HNqahEQpA3fLXwIMygsjg+iJwB//lX/5lvv3t7/Cv//W/4dOf/jQvv/wy6XS65ezmDA+u645gz2H0mJ2bpVgqN/22tLTE3NwcW1tbFAoFVlZWuHnzZjh+pRTVapWZ6RmKheLgZsrA4hfRKoUQ3L9/n9nZ2abfqtUqHz36mHy+0LVLKSXFYpHZ2Vny+XzTsZWVFWZmpvjgg/cBrwLq1NQU1aq3F3Z4eMjk5CSTk5M4jjPYXAzGAiOILgPhi5DwXTdtzlf91uD88ASLEJpsNs0bb/wab7zxdVzXxXXdri2V0tRrDlLYNEwY40+Ls7a2TiaTZvXmzTDbhNaax48/5vj4kIWFBebmZkilUli2RSxmIQRYlmDt8TozMzPcvnOLWCxGsdhdUDQgsS3fnd53nZaWRCvNz372szMmTyGiQdYRNP0m0UqwtbnF/MJ8aCYMPo8fP+boaILlG8sk4kmSySTZbJbj42MAyuUSJydH3Lp1C9cNMpL0zmZiMC5II4gMrjP82kFhDQcdJqTstmckhMC2bexYIIiiwcLjxUnuhJvZCVLJFOVyGSEEt27fYmlpkVwux9HxEdlalqmpqTOaz8HBIau3VonH4wPtmRUKBcrlMvVaHQDXcRFC8txz95mZmQnPk1JyenrK48frFAvFTt01YWdnh6WlJbLZLEdHR2ituX37NktLixweHVLIH7K4uHgm40g+n6dSOWV+YZ54LNb3XAzGAyOIDAxCNDa+u5mntAblapS6erb+4+NjZqZnyaQzYeCvbdsc7B+wu7tLrVZD3pChIIpO8+TkhPm5ebLZTN/0tNbs7OwSOEjgfQOtOTw8bNrfCVAfwKR5dHTE8vIylmWFLvbJZJK9vV12d3epVuuhGbXVNPj48RoPHz5EJru/WBiMH3b4RqchjBYXT1vgooHBMBjRfX7G1DRsxoZB6QTwSkFoLVAu7O3tk0gkicfjXpCp0kxPTyOEwHVdpmemQ1ftKIQQ7B/uk0z377AhhGB+fp5EIsHh4SGnp2UEjTId7c7vt/SE1gJLxnDqyhf6Hn9yHc3c3CKuq0mlUkxPT5PP50PTXYBqtUKpXCKZSvY3mV7jGtbrLnAb11HTrUEAAdg6mrYlLHF7FRdqHAGngd3/HDTNi9gVQ9S7TbR8HwStrvlRjNCF+0xan3bMUKN0EOQJuVyOiYkJJicnUUqxv79PLGYzvzCPU3coFAqg8Z0VBIVCgWqtitKK3EmOmZkZlMLnB73nYts2yWQyjPERwtszE51eaLskC3WVS6VSIZc/plavIKRmd2+bdCZJrVZBacXa+sfcdG+ytLREpVKhVC4Si1vYtqRaO6Ver/nu5JL9/X0SiYSvEXURBE3lTdot8ZA8sanPCP1zZ3x4tkpI2GfiWUKNyMDgWUSre/UQ9/oVy3NZLp/yj//4PrbdyA6xsbEB4O93KX72s59h2ZY3dq0R0tOUQLC3tx/GAQkBa48fD/Tyvr29Pfig2zF9Lbw6Uyc5Tk6OQzZUKBR49913/bkIlKtZX19nbW0NpRRCaH/fzqJQyDflsS0VS3z4wYdh/JHB1YPkqdojGkdQlzFRPptoOCdc+evbo9SA1hpLSoT0POC6BZYq1w370W4jI0HUpKV1d3rt6J/NMRfVNgdYY6ERRPfoGoluGwRBC+0L0cZ5Wmvq9bOu2kGQ67OHcQW5XgyeIkFkYDBKXHEBFEWXUgOh+Uv7TgKduuggnFoFlxACHe4Z94fOjH6INe4y12dToBiAEUQXj/EE2htcOFrTtrQeGzHOlGePaOtdHCM85t1Ls28evxCNTLNjYf695trqVDCK5+pC6za13ifuBdN7+mCSnhoYGAyPPj3g2jTkau20GYwTF6gRPVteHZ3R6oX1rNIcF91xzXUceErnqoU/3EEFyxV3Z24VslqMJ3Hq0LiapW3awQ5SzWjAHukLyrO1mdYZ42Aa42JU12muXSA04DY+obkoPCHy724xRZ20gk4CKfLvJibZbo069N1k9gpy53UY3hk6nWgFXXXRcsLKqa3HRzDXjltUASPuJjw60WlHaxAh1Hqu9N3ag34vA1dfAAWwoWHtHnfxBwODpwFCDFYmoTcG1IRChnkFhXRPDKv1PY1zbUZQF0rjonG5LtVX+4FZBQODIRBkKeiVINXAABpCCKBWrZntsRYYrzkDg4GhUdohlz/2s1RrP7+aGFBLGtSl0tcmQpftITSjcD8nSrPVpBbRWlr3fnqaBLtB0MhU3nOgjfNE4E4+6Fylb56Lvm+383DsZ64MuD/U/I4vhBcP5bgOtVrtSuYpHCeMILpQtNrFWyt5Pv3mhuuKeCzOK6+8wu7OLrZt4TguGoUXktnF0HAmZQ+N70PfD7080FpohjGm7YRP9PzWfkXj57bHu9DV2mfkbVyyB0I/3nZB3yoijKJQbc7tNddew+ottOr1OqVykRc/9WJYyvz6meei6yLbfDMwMBgAmufv30drzcbGE6TlZygYVEMIGVi/OR4j8Uth+etB3q4j2pTuRLM1Rqq1zPUwdPHnOkg+y/PSjOTQ1J1YXZ9zHdRbrg1NrTXffet7vPjJF/2S7gYBjEZkYDA0NC+//BLf/8EP+Pu/f4tMOsPCwiKJRBIZeEi15lQ78+Y8SDxNw62oyUzVM5an9XjU7BVlxP1qGsPQDcyK/c43ak2ICOq+4pba0AVfmLQLQO7WR78OJO0FnavqnJyc8PHjR/zcCz/H7/33v8fM9MwIHV2eDdigEUijGhkYDASPQWUyk/zyl7/C53/hVba3dvjwnz6kXCoTC4uxtbhvn6tkRKtQa5f5u/NYO/bT0bW6Qz99B7GeVxBFzHgdtbdedFuEjhhQEEXn2k0raiOIlFbE43Gef/4B3/jGb4TmOE8IXVeO237edt1yqQsLV0JS0RRmoIy+dE4ImkqCa0WjTPh1vRGfBTSYkxBeGYRMxuL5B8/x/IPnaIopGnkqlw5BoOctK9DvOM9VDmGAfs8I7xHiPHNt1zYsIdGB3Bntx4TJtMIOvUpEz/U0MDDogCZm08R3Rm2C6dDfucn02cHQdHo0PHO403qOAueZazvhNECfBm1hXssNDAwMDMYKI4gMDAwMDMYKswt0mRAM5/ZqcI3QLp5n0HaDtj0P3WjbHk4RXY+PY7zDtO2USPRsbrnOMO//rTArYmBgYGAwVjQJIuOoYGBgYGBw2bBjLsQUWAqU1ayiGj8QA4PLxrCpb4ZtN4r2ndoOGmg7CpoX3baTEckYl4aG9ldPA8pIHQMDAwODMcCIcQMDAwODscIIIgMDAwODscK4b18oWt1XTWoPAwMDg1YYjcjAwMDAYKwwgsjAwMDAYKywwa/2EVZt7AOd4o2CNOkdi1ANgUELUnXDyMYVpLMPMsWOqNuRolO0e7/tGKLteTAuuuPAOOZ6ndbX4GmDHdTnEICLi9ReJmHvr3W2RVDhOlpzPRRAwQ+u/+8hGX9U+Oho/ZDzChKXs/s0fqmGpnon0UJaAoIiZ+HDHK1zL1r6an3AowygW6nwwco9a91LQLcIy65jjI41qAXCEG37HX+7droDXYEQva77sEJ3WAySuqZX+2jbXuPv1m8f17WjILqI69quvRGABm0gwG7coBrdVP2x8fBrNK52QDngOKhCBeG6aB1lsLRoRN2KdvWr5QQlekcliNo9VKJRI0hL73hIUwOywRO1Rrgu2BbxiQzYAmIJX1C1Edrt0FTyuPdDqbVGa40QAqUU9XodpVX4e+d5RmlEGZ3sUt9FgXDpzCS7tdV0zqPXrW3rekfpNtpJ6V17KSWJRKKp7IK3Dtp/J7hcpqeUAiGQQlKr13DqdZRS3u9t0bpO/jjDMto9mHq7Ne7VVii8l7A2a9OTbpfr2tJWSkkymcSyvGfhbB2ey35hMHha0NNrTmmF49RwqhXe/fO/5cMf/Zi7M0sk7RhnBFBUYHStHtlNEEXbRerG94NuGljP6opRur7mJDRaB4LIE1LacXAKJfK1Mjc/+ZBP/8o/gxuzDcVoEBNnD7iu4uTkmLfffpu33nqLTCbD9PQ0WitUP4LojEbUpyDqoJlcuCA6Q9drJ5BIKdFaUywWWV5e5rXXXmNlZcUX0h2GdAmQUrK5ucnf/O3fsLW1xeTkJDHbpm/GHs6zT0HUtpJqr7YtLxhNFVb7EEQdq7c2t3Vdl3w+z8zMDF/4whd48OAB8XisTTsDg2Z0FkRCoZXAES61oxP+7A//iJfv3uc3v/w6iWQM2XTjjloj6iCIzr3HEzX/RH+26KwRNeuGwader/F4bZ2/+z/+A//sv/ovYX4ObHkOIdT8lqi1ZmNjk7/5m78hlUrxK7/y1fBNMzjedZ5Nb8BRGt2uS6d242p7tp1SiuPjY/70T/+Uhw8f8tprr2FZl+1z07hW3/3ud/nhD3/I0tISX/zC/VBz64xW7S/ap0X3G2jYtp3aXUzbfD7Pf/yP/5E33niDl156qUM7A4MGumtEQlM6OuFP/ujf8uUXP8XNmTls20Zrfw+ok0Yk6G5W7iqIrIbAadmyGYlpri0DF96YQtNOyxt6GwEYi8V47t49ZGyb//t//3f81u/+tyAttGQkb+iHh4f8+Mc/xrZtbt++3cbMcT1hWRazs7MIIdjd3eW9997j53/+U2MZi+M4AKysrDA3N4eUso/r5Aux1heivkxzw7YV/k3Z27w2TFutm1+Mpqam+NKXvsTOzg6Li4vcuLHcZU4GBt04u9Koap3Cxg4vzNzg1vQ8UkiUa4IyA1iWxe2bq3zuzvN8+P99JxTA3bWV/rC5uclPfvIT7t2713a/QQjR4yO7fIZtN662jfPAM4fNzs6ilGJrawvX368cxbr3A601Sil+/OMfs7u7y9zcHOBpa8E4en5Uy6ffdsO2bW0z4rbtrtEHH3zA1tYmrut2W04Dg86CSAhBtV7nJz/4IZ967gGJdh50Z5p3M7/0Cx3Z0B8nhKcJtTUHNt4iJYJqqczmP/0MitXI8eh5vd50m5HL5Tg5OeGTn/wklmU1meTCEQiJwPI/7Zi8RAir5eOfF7Zr17ZduxG17SmI2rRDNtEM7i8hBMvLy9i2zfb2DlLaeF6eg6/3oHAcB6UUGxsb7O7uIqUMP/0hel8MOt5h27ZrN5q2nbTAhw8fUiqVyeXyNDugGBg0o6NpTqNxynkON5+QeP4BDg4yeOPUIAMvsVBrb34IVeT/g6G1jepybFSI9nvWs65x9OyDJGxBNpskm7ehWoGJYEklzQ+f32/Hzf4Gcrkce3t7rKysdBiXOOu+fUYZ6Ean5Q21qW2v8Z2nbS834NbTg7WLOjL4ZwtBKpVic3OTjz/+mNXV1UszX8ZiMZRSpNNpMpkMg7kon4cZD9t2HDQhkUiwu7vL7du3mZmZMeZlg47oukfkOC51x/HU7+6bPiPGuLSh89BV0NFl1+BZw2WZAZ8FdHZlNzDw0NWWIKUI7b+XaYM3MLjqMM9DfzBCyKAfdNWIvD0Bz2nGPHJnIfBSI1m0hGYAzaaa8GyaY6yMqeKphRZoHdlHbBcWcM0R7JkZgW3QC/bQz0+TM4HJnXoW59yY1XAm7VAYoMq1Z3wN5ib62nczMDC4ujD1iEYAjV9qvVtwevDXaEPPCERz4HbTW3+HwGkDA4O2sJu9uwLNRnQI/Bw/ZMSdWp0xhY1zzK3ZJEYtaKJv/oPPM9jn83ryzUoQ7gGG/UYYaNAm2rZpHNrzrhSCC2a8nbSeaG7Eyxbs7XLkXSL14FoO6YnWfE0vCGGwbK+MEQbXHXb4Vhe4YGv8SGrXi90QNkLY4X0k/ChrJZrdeOUA6Xd6ntsphkjLtm1VmBGh8WCd5VsacSEPnvBTBHU/xRuBJha3mZqa6t1nV3Nnq3nOY9QBU7JtG9u2qdfrTE1NYds2e3t7xGybWDxGpVJBKy8rgNYKpQJhA5a0G0lWtUYpTSIRR0pJrVoDNMlUnGw2y+npKYVCwYvvabkuAZOTlvQDQF0s/3vw8TayA2Hnjbt5mjqy1Xb22gVBlYMkkR0F9JkEHQNoQGc3EwEQ0n8xiGS111p33GfRWnlhFJblXX6/ndIKgWgroBrXVSGEFwUHZ4VZEy1xjhc8PzZM9syebnDd0YdpLlq2AJ62N5tAa5JXQMELsmefYbijhICp6SlmZ2bZ2Nggk8kQi8XY3tlmfmaeqakpHn/8cXg1FxcXuX//PpZleYwKwelphYODQ2r1Gq7jcnp6SiKR4Lh2jNYa27ZJJpPUajUWFha4eXOV1vvi5PiEra0t0uk0t26vMjGRbZ8hwk9oenR8yNraGpVKpfcUmzLMjgPRRK1nY5yGwfLSEo7rcnhwGK7T1NQUCCgVS2eyEwgEd5+7R7VaYW9vzzdiaOZm51i5eZO9vT329/bO0Jmbn2NycpL9vX3Kp2WklKyurlIulTk+PvYy7btuk0A0MLhoXMk9oo4Ony0yMBAygfZz1c3ypVKJw8PDlkDVEUKAFJLKaQU1pZibn0MphbQkk5OTpFIpyuUSjuvgOA6WZVEoFEKBkcvlmJyYZnNzk3g8zuLiIoVigUKxQEzHsCwL5acwSiaTOEGMmVYcHh5zenoKwPTUNIlEAmlJhJTUqnXWj59wdHTYZBLy3tAlc3NzJJOJi1mTpwSJZIK4hhPrJBREdsxuSpsT1XgTiQSpVALLEkxNTVGpVBBC+Fk4NDMz09TrNRzHoVqpeuVDlCKdSuM4DotLi2SzWbTWxONxpqenWVxaBGBzY5Pj4+OxrIPB9cSVEURKgEKjpPe3HSzth9UG+xa+AFK0N2Qpf2vhqgiog4MDfvrTn/Liiy9eSP+TE5PcuXsHS1peyhlLIqXHyAJzoBCChYUFtre3ODg4CMsreG/cwmtjSYQMTDgN6R+Px1lZucH8gifgpqenASgUihwfH1MoFJBSEo/FmZya9Oj5ND3N7OztVq3UsGSftZyuOQLz3fT0NDdWVkinUmitmJub5/j4GMuymJiY9Mxvrsvk5BSu67L2+DFHR0dMTE6Qnciyv7/P0dERBwcHxGIxFuYXKBaLFAoFAE+oSWG0IoNLw3gEUcsekAKU1lTcOnUU9baSQyCQWEqSwqJSq6ITNpYCGe5bNcwkQlrEpI2NvBJmuf39fR4/fswrr7xCPB4/Z2/RfRHAz5Ccyx/zzjseQ5qbm2N6ehrXdZmZmcFxHAqFAru7u+QLebR2yaTTzMxOk8lkiMfjvsktzuLiPK7revsIolGUrlKt8LNHP+Mkd8ydO3fY2dnBcRxu377Npz71SYAw59rh4VE4tMC8dHCw3zwLf69ofn6OeCKDEEHm86uekyySoZ0B96c67rlo5uZmSSbj1Ov10BRXrVa5sbIUZhzf29tjf38fOyaJxWLEYjHy+TxHR0fMzc2hlMPe3h62bbOwsMDBwQHHJ4fE4jYrK8uk00mUcgDF8vINJiYmAMhkU9xcvcHh4SGbm5vomjuCSxCs0xV4AA2uNK6MRpQr5PkP/8//xfd/9EPqHfY2pYzx8OEL/Oe/8Q3+x//pX3FSKTcLmUg11/npWX77N3+Lr/zSl6DujFUr2t3d5c0332RmZob79++3eKqNDolEgvn5eWZmZgBPA4vH4+RyOdbW1lhcXOQTn/gE+XyOJ0/WcV2X/f19Ynac09NTisUii4uLbG9vI4RgZnoW11V+6Q8v43LMjpFOp0kkEkxOTlIulykWi6yvr1OpVJBSsri4SDqdaRqbEILZ2VmWlpaafj84OKBer418LZ5GBIJZShlWeZ2bm0Nrze7uLsfHx5RKJWzbJh6PU6vVwu9CCNLpdHgdHcchk8kwOTlJqVRiYWGBiYmJsH+tNfl8nuPjY+r1OgDLy8thBnEDg8vElRFErnLJ5fIcnRxT9533lFIo1w0fjlg8yc1bt6nW65zWapwU8jgRCSO1J4gEYMdi1OoOdadO7BLert97913+zR//n+zEGuNxXZdqtUo2m+Xhw4csLS3xne98p2df1WqNTCY78F5SPB4nkUiws7PDycmJtxewuIhlWdTrdTY2NnzhFKNW85j/3Nw8k5OTbGxshAKnWvX2FOLxBIuLS6QzaY6PjhFCMD0zzczMDAcHB1iWxcrKCsfHxziOE+4Z1ev1toJWSkm5XObw8BApJVNTU1iWRa02POM7Ojrie9/7Ln/7t3/bcqSXQ0M/WtdZ7UUIgZDg+hm4X3jhVr7hiQAAIABJREFUhYHH3JaS1uRyOba3t6nVamitmZmZ4fT0lHw+H/4WCJ54PM7s7GyYmT2VShGPx3Fdl3Q6HZbtnpiYoFgs4rouh4eHpNPpcB5TU1Ok0+lQ+4rH4+Tz+QGyiBsYjAZXRhDNTc/we//dv+B3hebUry58ZqNWSyxHEK8p/uBf/c/U4gJhBcXINEI3THNSSFLEEDUH3It/w3v4/AN+/b/555TnJ8Lfgr2Xt99+mz/+4z/mG9/4Bq+++mrXfqSUrK+v8/3v/2DgMVSrVU5OTpBSMj097QmOac9xYGFhASEEjuPgug6JRIJKpUKp5Gkzx8fHpFIpkskkq6urHB4eolyX0/IplWqFfCFPMplkanIKKSX1ep2TkxNyuRwrKyt8+tOfpl6vo7X2nSCKbcdYLpfZ39/HsqzQtHQeTE5O8fVf+0/48pe/7P/iu1L38mDp4EbdclKH9pparco3v/lN8vl8JF6mW5veCO6XQDAIIVBKhQI+QKVSYXNzM7yuSimOjo6o1+ssLS2RSqVIpVLU63V2d3c5PT1lf3+fiYkJUqlU2M/x8bF3nX3niEAjMvnhDC4bds2GugTHgrQCGZh0L5B3n00O5MczANJVZNzGea7UIU+REiypiQuJKzQaiXSCthoZBGkKqEtNTddJSd8tWWnQoy3Q5VnAFZo6dtJi8e4qzM+cOe/evXvcv3+fP//zP+fFF19kYWEB2272iIoilUqRSLTzIuv+lp9MJrlx40ZoepFSkkqlEEJy82bcN4F5zO7o6MB3lRZks1kymUzoDRcwMRChNhrURSqflikU86RSqdAdPfAGLBaLaK2ZnZ0lnc60FFADrQTpTIa5uQXQkEik/KJ2kTx8yBYh0Y2xa6SEeMImlb48rztvbS1sOw4E5eGHZN7BXLVEKxFWOw2EEJyN85FSUigUKZVOmZmZQyCwZIyK62my2WyWdDrN8fExOzs7oWBrFO7z1jsRT5FKp/w5KZLJZEdtdjhEXNwvMc7L4OnDldGICoUCf/YX/y/ff/dHVOLeDRu4Zwd/4zLOy/cf8LUv/wr/67/93ygqh5OaF3ciUFgKEJ5pbm5ymv/061/n859+CQvJODdMLcvis5/9LCcnJ/z+7/8+f/iHfxg52o6B+W8CQvnBxf3lUysUCvz0pz9FKUUsFmNubo6lxSVcV6O0Zn3tMdVaxS/p4dGNx2NMT0+HAaaxmOemPT09He5VFItwfFznuFSgWMqfebN2HIdSqUSlUsFxHNLpNOl0Go0b7ttp7SKkYGZ2iqnpxl7F7u7eWcZ3niDKpxSijxLzqVSK1dVV6vU6UlpksxPEY56TSTqTZn19jZOTE27evAl4Gk+wjxQNJCb4KzwNFcC2Ld9Bpf3LkYHBRWL8XnNaAgpLSmamp7l1c5Va3MscICPR4gDCsonPZnAtxczSHFLVmY44bnvfFELDbDpLNpnE8nJjX9bMOkJKyZ07d/jFX/xFdnZ2QmbRGS0eZKFAoqOGkEgkWFxcZHZ21q9cus07776DJWNks1nu3rtHKpUgl8vx5MkaWmtS6TRHR56HW+BmnUgkyOfzIWPSWpNKpahWq03lDwLhNTExwYsvvojjOGEsy9HRUdPGt1KKnZ0dNjc3w/FalkUykWJxcREp5TVhgFEhK2gUloRUMsXy0jLpjGdaCzJX1Ot1qtUq8wtzuMrh4OCAcrmM1p62XalU2NnZJZNJc/Omt68ohOD+/fu+q/aBp+EKL6NCLG6jdJxqpUqlWvE1Jk08HjPOCgZjwdg1IiUUaEkmk+LXfvV1vsbrOJGwEkHDXCi09rQjKfgX//y/RiqBEp5bt0D5FWT99/3AwqP1lXDfBlhdXeWLX/wi29vbPQTRcBpBKpViYmKCnZ1tcvkTqpUKoHBVnVz+mNIHBSYnJ5mammR6ZppcLkfMjiHDOB5N3alSd6rYMYkd8w2nQiKE5vS0hON4rr9KOzhujVgsRvm0xO7OXvh2PTs7SzKZDLM11Go1arXaGUETj8dZWl5ienqa/f09qtUq1wv+NfZTVE3PTJFMxTk8PGBjcx3Hcbh16xa3bt1E45kDd7a3qVZPG239e2VpaYHFpQVKpSJb61vUalWWl5dZXV1Ba8Xe3q5PS7O4uEA8nmgKI9Ba+R9NqVSgVquEsWXDm9Q0CBfw7hkw8WIG7TFGQRRoRdLTkLQMX/StdtYq4UUSCakaJct9Bgk08W3h96ED2/0VyXUVbMxvbm7yyiuv9Di7NaYmqhm1x/HxMblcztdiXFRLQKK3N3TE0dFhWPRwfX0NpYL8Yp33Y4QQYeBpoVDwY5E0Ukg/LY13npSS7e1tHMdBSonjOOTz+aa8aQFOT0959OiR3+46aEMBgheNxpy3t7fZ2tqiVqv4ZeA9E9njjz9m7fFj34vURbkOWoPjKCzL5ujoKPSAPD4+olIph223trbI5fLUnRoIRa1W4fDwEKfuUKvVw/2oYEweXY3j1HHdIJj5Ol0Xg3Fh7BrRdUKgEQSpcC4CQcod0BFG0mAmQXLTYEO8eU+gX03MS0YaJLP0BJ5o5KsTje9ROu3QODas2hoNmnx6mWZg9gzmEayX60bfyjQIgUAQi3kZrU9OTpqunxCyyXzqOZAohNA4jsPR4aGfsLVVyDRfe3FFXt4MrgdCQXT5AZ/tb3RBt+zcV8TGNlK0m2u0NEcntD/eKA/QpWVEQA2+HRBkbAbQCAnKVSQTSTKZDPv7+037PdHyEaKdi3Nku+T6oNu1jZYRab04gtYs5+36Da5N0D4UKmF3z+JzZPA0wxZ+EKjE26+R4HEZ3cMdteWBGMh5tUcZCNGFtuU2t7V0Z+qhcO01l/NA4NnBm1LuRNH6W+DOGmTI68aQhne00H142bXflB5EInjefMp1eeedd6jX67z00ksUCoUwTghoaDwtqZ2EEOH+SP8IND7Q2h2w7VVAZyF0Vmvs9qLQOLezc0Gna9nu94syw0Vd8w0M2iO8OzRnPYS11uhh4yMMfLTmJTtPMbWr59bcqCsEf/Inf8Lv/u7v8v7774fHL88TrnWdL3KdfFpiVNd1EDzN+zZRM6qBQQOdX1OicQcGBj0QROS/8847/PCHP+TOnTtYltVmH8rAwMCgGT2cFYwgMuiO/5+9Nw+S5LrvOz/vZWZdXV19Tt893T33CWAGx+AmSIggJYqkZIggJVoUbUtrr61deyM2YtcbDofDu394rYj1P94Nr7XiSlpZBymaAiiKBEncBECAOAfAYA7M9Mz0zPR9V9eZ+d7+kZnV2dVV1ed0z5HfiZrursx3Z77f+90+gfEJkdaav/qrv8IwDH7/93+ffD7vmXzfWhCe0UCIECE2jhUIkcCQoWHdVmIlK7MbDUHn1vvvv5/e3l5yuRy/9Vu/VUrW5kdoWF8DFay7FpV/LAkNtGUQCGEghLENbd9M8I0rggYYN8dzHWJrUZ3KSIlpuaFDQmwtpJREo9FSPqAbnSsVQnD33Xfz8MMP88wzz2CaJr29vVy8eJFYLHbdojlvF7G+mQ4KNwLC+QqxEmruEGY0RkdHO+m0mwMlxHK4gT9tbKWgQgbS9aCpqYnOzk6Ghq5sSn1bgfHxcQYHB3nwwQc5ePAgL7/8cikw6vWK5jw/P09ra+umpWJYC9wIBAssLCzc8AeF7cLc3Bw7d+6kubl5u7sS4gaHNLXC0BrpWcgpqdBSgYRoXR37P/sY/+Wl55guOBgyitYGYGI4RukjlPvReunHpvJHIWp+qpXbjo+DgRbm8o820MpgdGSa9y4M8dBvfAXqkyy3oPLNsF0HRJBeTpvqJrzJZJKOjg4KhQJzc2kcR3nhbwJWR9oAbVb5GK5IRAsqWpNVLeuXq1HWF7eU7gHTNEmlUjQ2NqKUIhKJ0NfXh+M4nk+RDJRZLAfUMIgJRnrQS74F9wAwPz9PLBZblmxvK2BZFk888QT33Xcftl0MZJddmyn68rVZPr8rVyPK5ncNZdeEShaggT4HxG6maTI7O0tLSwupVKqsfEi4Q4D/DCnPfagUi03jRrpWeM+xFOxoa+ep3/kdvv/cT5kfn8EsKiLO6hxgDb38Y2qI2dU/UadyuW39KPdjKrAciNgQcSA9OcPY6Bj3Pf44orUVtAa1OQYePT09HD9+nHPnzjE1NY0V2Ujeno1sACuX9fVAvu9QNOrGMTMMwyVENfQCaxXbaKVIp9N89NFHxONxTpw4sW1in2QyyezsLJ988glzc3Mb4PxuPLP82qj9TDiOw/vvv8/Ro0cZGBjY0p6FuDlRVZakAAQ4lqRpdy+Pf/1JXvze35GMRDmy9wDSXBrAcC1agFoOqwD6Bgsvsqgb12jbIb2wwMjkOHNOgfsf/wwNB/a6M7mJ+6FhGBw+fJhUKsWPnv0Rn5w/S1dnJ01NjQhhAmaNU2+Qk/BzwgS4maplyw0BKpUNnnyD3vuLBGU5l1M7nEzVMfhlNSjlZvEdGRlmenqKe+65hxMnTmw4sd5G8eijj2JaBi+99CKNjY30dPdimtYq9WIBrk+Dm4spML+rTYdRKcnfJqTS8H3EFiNyL/bX1V9KBAZCmG5OJENwbfgaIyMjHDt2jP7+/lIKilBHFKIWxN6jd+u+nUf5/jPfQsgihvZOuIDWEltoNAJTO4j5HNNXR7jwzgc4uUJpz5K4z/1qolxrAfmKUU29DmmIOjcWIQqOSxiSaCpJ9/491Pf3QiK66DzuQQs/rMrSl89xHE6fPs3Jk+/xta/9JsGYYrWQz+cZGRlhaOgyExMTXoDRWlEZ9PJPVWJSqRw1ylYnKEHis3RcGyRE3sc0Tbo6O9mzdzcNDQ0lQ47t3uR8fdGlS5cYGhryUjRUG19wLoJrBMvXZbXEpJI12sYJUTA7cqV4hFq7cQZ9RjCVqmfHjlY6OztpbW0tHRIW18gvG1rPhQA/Io5iBfNtiSppNxAm1MdpObiLloN7QOllIVtK8EP4VLquZcAjvXKrVbFSvdWubaSs9pPqeS+19/5oAdo7rYvAiXSR0di8Fy0ajdLX10df386lda92j6q0AWyk7JYgSIhuXPj0pq6ujkOHDnHo4OFS6qg11OL9vLHHuoi1PhPCuz0kQCEqoyYh0qKMLAhjcdNGs1LMuKrXfTFEVayz3pWurbdsrU27pNRfDVbiSGq0LUr/rdynSu1uVtktw+ra3BZuKMghw6ri+lUqy3U4tGwNQoISYnMR2mSHCLFBbESl6XJU2y9eDBFiO1GbEJVEVmLp3xVRSUa9FSiXqV/nJvwvbjQjp3Af2zpsYK5t2xX/muaNpQcNEWI7Yaqq+m7phTCpgpVOcDWvX6+UwddpN64gTlnakqjwW5WKhELjeMnKVrEZVatwI0MNida2wU+/7kOUi1xvQYTMXojKkKX/Q9HcarChF0mX/a7Kfr9eRDlEiBAhbg6E8oEQIUKECLGtqM4RieUp8eQWqGNuPZT708i1W86FCBEixC2MkCMKESJEiBDbipAQhbiFsZEYeyFuXGzXul6fKPIrt3nrtxsSohAhQoRYNbaLMGwXtmasJkDRAFtCQnlx1QSgBbqWQVeo3ghxw2O7IgDUivMmUMq9tiQwqv/erbuNWmF3KnxXMcLDetpdoZ3rimp9WWUkkZpdrbQB19qUK5zpq3WtJqq14X9fKzJMjWq3aqwV21lmbbDsjtB8O0SILcbmZayttBFvRWzAYLu3ergfVeX3IDZbsBRsZyuFVtsx1utZa4gQIUKECLFKhBxRiBA3JfzcI+VpOyqhAgcTzOqwoXZvVUhcrqD8rL6S6Mwvy03EKF7vsa7M74SEKESILUU5wSgjDCsV9YusqZ0a4rOV6lpRl3QjiubKxJPr7p6/QZd/V45Km/hGsM66NrQM2zVWFyEhChFiA9jexHzlSfaqmTRXIkobISA3IvG5XlgPl1Ct7I2OzR2rVquPTB8SohAhNgCtNbZtk8vlOHfuHOfOnSObzVLJHkFrjdJlL7GuRRjKuSc/IsfS7LtuBlUQUq8cYLS8vZXSjJeigAT6UyUNeSQSoauri8OHD9PU1LSpBHpycpIzZ85w7do1Mpn08nmshJpzuxqUtVEzoWcQ3nytlButEqol9vRRs86NEL71jVVrL0syBkIY7N61m8NHjtDYkALEqmc9JEQhQmwAWmtee+013nrrLVpbW2ltbaW+PonSzrJ7hQApjDKrubUQovJ7KqV2Xy2CddWqdzX9cmHbNpcuXeKVV17h8OHDPProozQ1Na2hT2WteOlvn376ac6ePUt3dzf19fXEYs2rFGWu0pS9hEqbcTWsQoy15YSoHLXu3ZyxGtLwDhwS27YZujLECy+8wKFDh/jSl3+ViBFZVU+rp4EQlaWGIdaKCtG3S6cNQRh9+2aEuxHbts2rr77GxMQ4Dz54v7dx3k5iKxc+wQBFY2M9vb3dFAoFPvroAw4dOkxzc3Pp+qLuZqVYi+678t3/+l3i8TiPPPLQNsxv+e53K6/tavRDK6OpqYldu/opFAr8wR/8Ab/9279NT0/Pii4LN5sQM0SIGwJaay5cuIBSNh0dHSVd0UqfWxGL45MIIbEsi7q6Ot56+y0GBy+g1HLucBW1cv78BSzTImJF0FqhlELptXB9IbYaQgiUUpimyYkTJ/jTP/1TstnsiuVCQhQixBrhE53Tp09z9uw5lFZorVf1uZ3Q29NLLp8jvZBec1mtHX7842cpFArU1dV5c37r8iO3IhoaGjCMclF0ZYSE6LqjXAcQTAMRTv/NCUGx6BCJxIjH6xAYLK7nbZjeQ4uyZ9r9pFKNTE5Mk57PAAKtBaudIyEMotE4hmF55QyEML253iqUj+lWXtfysW4MQggcx2HPnj0YxsprFu6EIUKsAz6HI6W8ZUVuG0UkEsG2bYrF4prL2rZ9W3KRtxK01tTV1a3q/QgJUYgQa0RIeFYHKSWO46yLmCillvwM5/zmhL9+K6Fkvh0uc4gQm4HwBL8ZCOoVlhAhEc7vrQhTeusqNSjhpYEIESLEGrBoliyEweoZgAp+Qjqoi9A1Nt4Kvj5L/GYCZYPfl5xRa/kKVXNoDZb36hVl31Xr7RoiUJRzUFqrgKPuBkyoKzrvriV6QGB9VvL3KZX31yY4h6v12angGLum/srNaXfFsS5C+/5A3oJpLdDKjbIA1SMtlDgijbdOIUKE2ADWFBBuA2VuV2z1XJURlBseq8hbdAPi5uptiBAhQoS45RASohAhthBLxVNlZv0VTtzX03JsNaKyW91IQLDc0didb39rrGy+vfooapuDlZ+BSv3djHq3BiEh2lIE/C105Y0nxM0CCdr0PlbgY1LrtTJNi0QiiWlGQAu0hmg0RjQaXRZ9QUiBYRgYhh/PS5CIJ4nFEoBc9MvRi8+T1hpHOdiOjW17HyfwsR1s28FxFK5Bk4kUJslkkkjEjwsmsKwoiUQSwzRcHYEIhqbyPqJatO/SCADD619Qh7XSc+/fu9w3abX+PLFYjEQigZRyyWabSCRIpVKYpquV0F7/hRAkkykikRgCA6010WichsZGDEMuOxDosnEnk0ksywqs3+J77gYEdddWa01jYyOWZZX6lkgkiVix5f5opXUFpRWphhTxeLxUj9Y64MMFjqOxLLMUBBdAGoJoNIqjnIq6S8dxSKVSSGkuaTeVasS0ti4UaRj0NESILURLcwstLa2MjIwwMTGBkJK2tnYK+SKjo2PuJiLdDUIoiEYj9PX1USwWuXp1mNbWVrK5LNlspmL9qVSKnX29xGJRbNtGCIEUBpZloZTCcRTSEGitGBwcZHZ2np7uLuKJONeuXaNQKOA4Dp2dnTQ1NZW+KxaL6/IH2g7EYjH6+vqwbZvp6WkymQy2bWMYFrt27aJQLDA6OkqhUCCbXcBxHEzTpL9/J2NjE0xOTGIYEfbv309dXYJcLgda8NFHp8jlckgpkNJg717XWfOTTz5hYGCAK1euMDMzs6w/Wmssy+LgwYNcvnyZnTt70VoxNTXFtWvXGBjYxeTkBCMjIxSLxZLFYHt7G6ZpukRHaTq7OolGLUZGRrBtGwClIJ1Os5BeIBazOHr0KKdOnSKXLeAoh2RdHXv27uXjU6fIF7JLjEai0Sg7duygt7eXs2fPkslkiMViaC1oa2sjWZfkwuAFhIBMZuG6rn9IiEKE2CYIIWhqbKKpqYl4PEF3Tw9auRvF5OQkwyPXyOdzjI6O0t3dTUuLF3W6ZFlUnbu4cuUKY2MuYWtpaaWxsYmx0TFmZ2dLXu9KKxpSDcTjCQzDoKGhCbSkUCzQ0NDI7OwsuVyO/v5+ZmdnGR0d9fxCtoqTD0oPAljBimugfxeNTY0opWltbcfxnGN9LiiuEzQ2NiKE5PTpU9h2kWg0imVZJJN1FPIFOjs7sYsOZ898QiwWo7OrnVgsSqFQAEAph8HBQfbv309bWxuWZS1yMBVYD2lIcvkcqQaXG3Mc19FXKYVhQHd3N+3tHSjlcOHCBTILGXp6usjni+5aOYq52TkQilgsViImqVQjV4aukM1kA5zn0vmSZaJHKSXKgUMHjxBPRLFtzZHDdzA5OUl9qh7TtAAwpODwoUNoFBcuXGBiYmLVfkFrRfXo2yGuP/xgwiFuHqywZosRollmem2aFqZpodEYpoFpmTQ2prBthwvnByna7ml4x44drthGQVNTC42NjRSLDnV1Serr63BSKVKpFACOcnAch+mpadLpxZhuSmkGBga8zU2htaKpqaEkXrp8+TLT09O0d+ygoSGF0ppkso5YLOJufMphbi5NNpNnZmaOHa1t5LIFpqenlw64lul2wFxarMHorPze1aqpfPHX5cuXMU2LyclJ0uk0+XyeQqGANCQHDhxgZHiE2dlZNBrHdtixYweNTa64rKWlhYaGRhzH4erVq2SyGZqam5ibTaM1JXFae3sXiUQCx9Ekkym0FjS3NNPU1LREbHfp0iWUo2hvbyeZTNLc1OTSKS3o7OjGjQcrGRl2uZxINILW7vOhleDSxUtkMhlXROrBkIbLORmSQ4cOYdu26zjMUvGh9GylhQDbsRHC4ODBgxQKeS5fvsi7773N3XffzZUrV5idnaVQKGAYBt3d3cxMz5FeSLOjdQcTkxMeMXT7uhZz7tVAEXJEIW53aI+2bMGBoL6+nqbmRhKJBPF4vERw5ufnmZufI5vJolEkkwkvdJC76SxuKAKlBEotbjiO49DQkKJYLJBemF+mt5mcnGRsbIxCIe9ucIZBV1cXAMVikQsXLuDYilw+RzJZVwrLks1maWlppr+/H9MwiURMhHR1FXK1aTe3GL7epLmlmaJdZEfbDqyIxdjYGD29PdTX11NXl6B1RzPNLY1IKZmcmGZqaorR0VGO3nGYsbFxRkfHOHz4ML09vUhDIqUkl81x8NABTp/+mPn5edeVSAiKhSJCSizLAO3OzyK3kiISiZDNZBkaukShkKOlpYW6RD2Ox1G1tbURiUSZmJygubmZubk5ctkchmEwn57HMA3uuPMolmV6OiGJYZoYUrKwsEA2k8Vx3OjmhjQQUnDk6BGUo7Adm6tXhxASDh7cTywWZ3xsgpHREWzb8cRw7jMRi8UoFoslcd3CwgLFmTydXe3Yjs3U1NR1XbuQEIUIASWCpLVGKdcqSlY5xQvcl341wRyDmJ6aJhaL09ICIyMjGMai7qa3t5fJiUkmpyaWlJmcnHQ3AeHGbuvp6WF6aprx8fFS+9buAaSUFePeNTU1edzTUofS2dlZTyEfxTBN7AWXs3Ich3Q6TSQSoVi0GRsdw3EckvVJbNtZExFSSlHIF8jni+TzTol78vuxtK9LHWyFkOsWFsTjCWamZ2huacY0TEzDpFgsEotGmZ9Lk8vmShHTHcfGsixsx9e5aFpbWrGsCBcvXSQejxONRhm+NkxfX19JNDUyPFI6DNiOzbFjd3H12lWymWxJx9Pb21sSgfbvHKC9vY2LFy8S6YowPT1NKpWiLlmHISUNqQYaG5uYm5tDa+0eEs5fQBqSU6c+8kR4Bqn6Brq9/D5Xrl5hcnISwzBQWuEoB9CcP3+efD6PEALDEKX1Hhy8RGYh4xJsHFpaWigUCpimWYoL2N3dTWYhx9zcPKZpMjY2RldnF3Nzczj2etJ5rA4hIQpxe0PA5MQkL774EpcuXuLYsWPs27cPIavkD9ICy7IoFgvMzk6zGFVhbSgWiozPjpfESc3NzcRirvWcv8H5hBFAq8UAkv0DfTQ2NXL1ylV3w4ESISrH7Mwsk1OT2HaxZG3V1tZWUlq3t7e7xMiQRCIRxsfHvSyoMaLRGI2NrpVaoZBfxzDd5HaZTNqbKxfCy+dQjRAJITGkiaNs1pOac2Jigrq6OpfIO4qGhgYmpyZpbGwkn8+XuBYhBOmFBerr6+nu6SYeq6Ors4vpmWm0x/nV1dXh2K4xg9/fcpPneCzO7Mwc+/ftJ5fLcfHiRdfAwbdcE5LpqSlmZ2dIJBKkFzIspF3lv+M4CAGphhSJRKLqmKR0+9K7s4/Lly8xPz+PQJTGKBBopVEOZBYynlGFJFmfQGvN2NgYuWxh2WFEKUU8HqetzTWMcNPe52lpaWFqahLLssjmsiTiCYqF4vXTEV2XWkOEuMHhi3FGRkZ4/fXXaWpq5Fd/9b8lFoutqnyhUCSZTJLP55deWBZCpzy8jmv6HI1ZGGkvNYJ2ld9NzQ1oYWNaEq0WTaSV1iilSKWSOE6Rq1ev0NbWxo62FkZHRz3dgHu/aboiPcexmZ9foLHBorWllURdHK012Wy2ZAHnG0UkEnV0dnaSz+dwHAcpJVNTU6TT6ZLYpqmpCStiBMa0OpimSVNzA23trasuA2707RJhXaNOYnJynMnJcRKJGIVCgUw2jW0XmJ+fJRaLYVoGWitaWnYwOTlNLBpzN3GtGB4ZpqW5hbq6OHv27sEwBI6jaW5pwrJMpKEZHLxANpsvEdP2jh3Mzc8wOzdNb28vvTu7GRwcBBRSgjSgPlVbjaV2AAAgAElEQVRHQ0MD9fUNZDIZ+gf6KOSLnD17Ftux3cMP7oFDa01TUxN9/TuJRCz3GVAKy4xQKBTZtau/NFatNZlMhjNnzrgJCAOm9hqNKhFz7c2jQdEuYlkG8/PzTE1N0d7eTjabJZPJMD4+TjweZ9++vRimYG5+hpnp2UVx8EZE2MJ/dpavZ0iIQtyWEEKQy+V44403SCQSPP7442usQQdeer3m+FgtLS3E43HS8wvE4nEaGlKk0/NMTU7R0dnuyvv9E7WUdHR0kEgkGB0dZWJiAiklra2tJRNtn7DGYrGSufXc7DyWZZHLZUml6pmbmwNc8+aFhQWUUmQyGa5euUpffx+O45RENQsLCyW9QCQSIR6Pr3F+cOdlQ4pt32dpbWhvb6epqYlkMglAc3Mzly5dIp1OMzo6im0XGBgYID0/D8DI6AiGNKhLJnAch0/Of4K8IGloaKCzqxPLtLh6bcgTmzklIg7u3DQ0NDA3N8f8/DzXrl1j586dJb8wcInFyOgopmWSzea5du0a+/YdYGx8jLzPafrh+zxOdXZulg8//MBLLOd+H41F6e/bxdDQUOkApL1DClR2Pva/U8ptQBqSuw7fxSfnz9Lc3Ew0GiUej7sE2jQ5efIkmUyG9EKanu5u3njzDZRz/R2bQ0IU4raEUq4fR09PD52dnVvSZlNTEzt27MCyLObn55mfnycedw0Xrl69yvz8HFKCaZil9Alaa1KpFG1tbWQyGRYWFpBSMj4+zvj4OJZl0dDQ4PkI2RiGJJfLk8/nae9opz6ZIpNZwDRNTNMkm83S1dVFJBJhdHSU+fmFkjmxL7ry0z374ivf+XKzoWvFSt2Aw38ikaBYLGLbNvl8nsuXL5NOp9m1axe7du3CtgtIKblw4SILaZcgK+laFvoOodFolJ6eLqamZyjkC3R1daGUYmx81Ou4KyobGBhYknPJ5yQzmQwdHR0lU3lQWKZFKtVAfX09hUKR6elptNJ0dHQQiUawIgaRSIRcLodyXC7I9RdyCY3vMJvP58lkMt4cBpxsvd9967fGxkaUshFCes+HQzQaRxoSpTSJRKLUv8nJSYaGhkqcqPQUpI0NjUxNzZSeh+sFUyqJKJlZSj+G8HVrMMTaEIbDvD6QUjI8PEyxWKSjo2NL2sxmswwODpLNZikUCp4yedZVzHvGCNFohEgkwtzcHEopuru76erqKp22c7lcKdqClJLm5mYMwyCXyyGkJOrpKxoaGmjb0cbI6Ajz8/O0trYgPUura9eu0dHRQSwWQ0pJZ1cH6XSa6elpEokE9fX1rt6ku7t02o5EIkxMTKwwwhsDQ0NDFItFDh06RD6/aC149epVcrkcnZ0dOI674QopiJgRTMssmWZHIhEGBgZYyGQZHRklm81iRUx27txJoZhnfn6OxoYm+vr6cRyHS5culQi4L9p1zcAbGB0dBVwiMjc/T7I+hWVZJBIJenp6SM+n6e7uZnR0lHw+T2dnJ0op0un04rvvcbw+qoXlSSRcf7CDBw+WONjLly8ColRvqr7RZeaRXDh/0Y300NQIKM+XrIGdO3cSiZqcOXOaXbt2kUpNMT4+TiaT2eSQQIuHG1NqiUuMQGjpmf57LOUmNhmiAmr5o1CFCOmyn7cF9KJ8WYhK2pd1YWHB9apfq/Xb8u4txooT4OlrlqdwyOVyrhKbxXw7ynHv3bmzl/aONjSKublZZmZmsD2LromJCYaHh0vESwhBV1cPra2tKKUYGR5mfn4eQxpkMxkKhTyGYXLp8iXm59P09w3Q3NzC3FwarTXT09NYlonjFGlr20E+X2BsbJx8PofWunTKn5ubQwiBaZp0dnZuOldUzbeofK/TyjVgWCxYW1zn67mklCWuSGtNoVBgZGSE8YlR+vr76OzsoFC4QiKeoHdnL4Y0sIsO3d09pNPpkh8RuH5X2WyG9jbXQXZHWxszMzMMDw+X1lQId8Nvbm4mEokwPDxCPu9yX/0DA6RS9YyOjDE2No5hWDQ1NtHX18vwyKgnMrRpa28jnoiTyWRcKzgtQWgOHz5EKpVibi6NXVSBdAuLIYoMaWHbikLB5tKlM+RyWZSyicfjNDa65urFos3locsU7QII7XE+CtOI0N3dS9uONmbnpvn440GKxTy2bbNzZ59nxJArmYpXX1Q/34O/sJ7oesm7sPw5EnuPnNA7+47w9Pf/H6Je0gghPfPKsqfkxvQeuHngOIrTH5/h/ZPv87Wvfg0hq/uvlE4eSiMc7d5YLEA2y1IydSsjkP9FukQIQ4AlIGKAEYzNtXaS9MILL6CUqqEfqp6zp1Ao8NxzzzE5OclA/25AlmJ8VSNElZvw6/Xvr5UnqFI5lpStlLfHf5YWT9ZlG7n2H8Tl/V2WR6g8p08Nh9ZiscjIyAgnTpygv7+/4j0Vh6Y1juPwx3/8xzQ0NNDV2b0mQrQShAg6frrjCepzSr8Hvf2FL5paTAuhNSWR1TIi7c2TRnn5lAL16uXm66V2y/IHaSUQMtDfWlEmtPcMSoHWToW1rpJssLxeoZaUFcIo9XEluPc4pfWanJzkc5/7nBt5IlBXEKFD6w0M7f8r5Bk6fZY3fvIC9ugUlmVhSIG4LQgR+CbAPkckYzH2Hr+Dw/ffh0jVgWGhK/qlrKLeUhDPWz3EhUssXIW1QIjgJlwbt2L07UobanXRlyj7fum18kC16+uPz2UI70wiy66v/l3XWqOd1RyCygiUUMuJ3BYiJETXHUE/k0AEY+HH7Fr+EPthYhampznz/KvMnbnAZw4eou6YF+EXjbhBwrdvNbK5HOcvX+Sl//Id9p64l+6jRxAxAyVc4r0+N8hqG3Ol9fHvdUDYQNH76XEVVTiLpeUD19cS+yZYtkq5ipuWXhQbVu4DrNofatX99U/UvrK9+vNeuaztzquwPcvEVRQrIbjJrmV+yzitVYxVBEVQlcqWOKw1vK9r4viCz8Qaii2BolbonpIvW4Czrg6H2paOlTm0UNp2Q0KzMDfDqV+8w8zoCA8+cF/Jj+F2hgDqYjGO7N5HR7KR4fc+IjM07NL1ddXob5a3geKtZEpdPuYQ2wu1+LPEoW8BlqT2CPZjexASohsQSmuunLvAxdff4d79hzEQbkiSW09Ksi5IQzLQ3YtVUJx790PI28v1oSFChLhpYIJnuB2+xNcJZex9MDFeFcKSzWRxcgUO7dxFQloIoVwtxm2+RoqA32jUYkdHGzlDkp2eIp5o3yJ9hi9mEUvXsmQw4Su017NYKxmhBJ6lcqMBv/y6H5KN2iBuJnwrxLIkcaXLG3WSrYbKBgfLurYuBAxqSg+xpxMqebP64y7DhnQ3gbLBepaIcKvVv952a2WIldSMrCA0KHkjEyS/81vJxPkbw0baDD655S9V2cajXTnszNQEM0NXubOnCwyN0MoPpg9auKE7bnOqZEhJc0sTg5evcPnUx+xrb0Fbpqs/K9210ua6aHa9+PdqENwoDVcfEPCML9WzYgbTSqhmNbdWQlFFdyDWU9ca2/ObEgLTjHiWUqtvzz1QLGYoXebXqIP6jEqEZSUdUaXrAQvNqmVVld99S8klo6B87ZZa6rGYYVW4e4yfHmJpNeX1rvR3ENX3LR1sp5KoZcn+4lvPlQpUbUeIcvVBpdTlZcYYlBkr6DXq1EJsMgQgBMpxyOWzuArmG+WUemPBjSDspsXWbgwS/wqLVnDXb+6kMJDCpJSMrHZvWZVJ9i2BxbEWi0XP+VayOP7VrY0hTW9TczfolZndahvyFro6LDGlDhC4ldZ7IxzPkjaDF1aoc1Mt5DbOJNxEOqJa7N71QhVWeSva3UZTyhArw1EOU9NTbhTkW9DEeTMwNzdHe3s7DQ2pNZcVEjKZNI7thPN7E8L3Bfvwww9XdoLlpiJEtzICoh69HlFRiK2eqmg0wl133snAwIAXyt8Tni7ZNIMn4tU63q7l3gpl9aJIayPOvmvH4lhdUZzkypWrWFaUeLxuXX341KcecwOF5rI1iJEM/FzPZ439Wja3cvm1ZSK+2wu+c6+fORZY0d8qJETbinIdRTk8HUPpAV+vvuDWx0ozWbHEBjfrffv30tTcwMzsFErbaPww/L4xQyXRTLkifjU6LLl0k1vzRreWNtcIHdStuB+lFIVCgSNHjtLX14dpmixdoZXFZVprjh49jG0XyGTSuGkNHHeOg+8EsHEdbiXiUmmeaingy68F184oW7s1YNm6VzDiWE+9a2l31UTdhZ+g8aWXXuKb3/xmKRPsMh837zHYLrlTiBCbBqG37yGWUpaiWI+MjFS4I0iM1kh41kwwqliabdXpPEB05+bSvPvu++xobaOlecey2HGrgX+C/uVf/mXS6TTj4+Ol75e2u8UcUdWDwUbrvTWgtWZmZoYXX3yRz3zmM7S0tJQik9fC7e0heQvCZ5o0ohT6JgjBokGMn0anorFO4D6vQsSyk2zQQGBZ6SV1C13bItM3lFnexlrgb8Zbo5wWQnDs2DGOHDnCtWvXOH/+PENDQ8zOzi0mEisbT8WTYaC+4M+yq9Tc3GrEgNNaVbDqWmyzlsikUn+X9nOx3fr6JN3dXRw+fJjHH38cy7TWFjiiAhoaGnjqqacYGhrizJkzDA0NsbCQKeXXcbEZzpiVrOZq3V7Jeq1SPypxSxvBRqzm1tuPlefXz/Ta39/P/v37+dSnPkU0Gi1dXylMkXmbWwFvMTS2U6RYzJf+XrZpCljqZa2o7Bvi+owI8Ey6hRvmRggcrV2jc2kwMTlJsVCgvb0dpRRFu4AQClNIYmYELUXpI7RAehTJz18iwPspiBgWSik3kCN4YXVc81qpNdJ7OYVHELQXKVuhMaIWjnQpk/I2N41GaDAFGIB2FNh2YG5KE7J0ivyNUAsMIRenUfv3Bzfk6quxNNBlZWK6GliWRV9fH319fau6//bG2imTYRj09/evKXBqiBsLFQ873leSkCPacijHIZPNrMIcdR0QLnF49/2TvP/BBzz5G1/h52+9xYULg/ze7/0e7793kg8/OslTTz1JNBolXyzy8bmzPPfyiyjhGYtrQSKR4MC+/ezs6UVoKBYKpBfS7Nm3l7OffMLHZ055hEjgCPcUKXEJkRvhQLCzs4e777yLqdlZfvrSC5wfvLBk4/eJkQCk1hzcv5/PfeZx2pqaV71N6Q1wPpU5k60x/Q4RIsRShIRoi1EoFt08OEphmpu72QkhkabEjEWZzszzxvvvUhAKxxCMz07z0SdnEKZBY6qBYi6P4zi0tLYQb6jnk4uD7Nu7j+GrIzzw2KPkczl+/PKLtO/YweGDBxG2hYxY2EqxsODmaFFSYEcsLl67yvjwMEf37SUei2FJi/lshrlshvl8hrx26N3Vz8DAwBJ2HQANpz78gKn5GQoobAmGriAaDBYJRkpe4sC6emitl/clRIgQ24KQEG0hBJBZWODixYsoxwFzc6f/0qWLvPTz18l5yd7eevdtRicmyOby/PX3/4ZCNk88GuH/+8u/4PiRoxzcs4/m1lb6d+/GloJ9hw6SzuXYc2A/I1evgTyDEqAMiQLiVoQH7jzOI8eOuymLleLM8BW++9yz9Pf08N99/RsAbhh6W2Mrm6npKYTSNDc3s7O717OgcifDkJJYLMZCep5Lly+CXMqJLOqNKkMHuKq1IpvNkkgkSpksQ5P5ECG2DyEhuu5YGm4/1eCmYF5YyGBaqSUJszaKaDRKS3MzeaVpaG3h7MVBrg4PY0ajyIhFX2cnptK0NDaQrE/x8ZnTfPf7TzM4co2cXeDtd94hnc0ydO0qbU3NJBN1KDRaCPenVhhKQNHBcTR5p8jJUx9x/twnfPGXPovKF5FSomzHHXUgwsyZj0/zyssvL7GgMQyDPXv2EI3HAQMhTfwMrCJYQQVsNA/Mz3/+BplMjic++0ssJT6h0jREiK1GSIi2EEII7rrrLhbSGf75P//n/N7v/S4PP/LAptXf2trKgQMHePb55zh19iz3PPggBw4d4uQHH3Lk4GFe+ulzzExN8vhjj9K6o4Xu9g7++/4+nn727xgeG+Xue+/jnfff53e+8Q0mR8Z44ac/BQ1SCoSUniZIowTYBrz0+mv88Ic/pHugn/mZWf7023/BpQuDfPWpr7J3117wLLU0cM+99zCwaxeXLl0q9dexHTo7OxkbH+f8hfNepgJR8jRxtVabH6Llgw8+oLGxkU996k5MM5gxMtQNhQixHQgJ0RbCTSkMDz/8EM0tzfzhH/5n/vhP/4iB/gHq6upKW2A+m6VbRKBrbVZCZ8+e5bvPPMOO7m7+8T/5J3T09nLm7Dk4CA/fcx8PHr2L9959h/Hp8ZKB2YULFxgcHOTu++5FCDdiAEB3dzef+9znmZgYZ2hoiPpkHVqCYUSYnZ/h2Vde5NzlS3zxS1/i6tVrNDU0cucD9/PDH/wdP33+ebq6uknEE2jpWvMVleKjj0/x/PPP097egWFIJsYnOHzkCD09Peue07m5Od589xd892cvkPct6DyHUq0FSIFhGJimSS6bRWmHe+65h0996lNlRChEiBDbBXMxYyiBn6Gv63WF0Ozfv5d//+//HTOz04yPj1PI57FMC41mcmyM9LlLlBJXLbPu8k7uZc4/e/fu5Z/9/j+jiAbTZGx8hFOnP0I5ioXMPBFh8PAjD1G0CxRzBZTWSCk5sG8/jz70MGc/OU+qroHR4VHaWnZw5co1nnn6aXbt3s2Xv/AFDCW5cnmIv/yb73Dq8gU+/+Uv0d/bx/C1YQwh2NHcwpe/+CVefull/vIv/oK/9+TfwzdBFygihsmD9z/AF7/8ZWzb5sUXX2R6egopxdKR6UX/+8r8ie/zoYhEIvQP7CJ1aC86El3uECUFhmmgleby0CVefPEFvv3tb1NfX89nP/vZDS1jiBAhNgfm1iZb245UDtvRbnUzYF+34cZjsmhv66S9rcNzONQo7XDlYoILw2O16xcENl3Xp+i999/lP/7f/4lM0UZbERxDUEDh2DY//LsfEtGCiGHS0tjEIw89zBe+8AV279pDR2c3Tk6xu28X4xMT/O3fPsPXnvoqh44e5MCBvSQiMRoSdQxfvcrf/fgHzM5O80//4T9i/4EDnL14EVNrDAWmNmhJNdLX1cPktVHGrlwlEo9gaIVUYFoRLNNC2TbKdrADPkNaKJRHeKWuJo5bPp+xeJR9Az0cePzTnvHH0utLfHL1I/zWb36d9957j7GxMUZHx2hvb6sxzyFChNgKhKK5GxRr9pHx9E//4T/8HxSBAoJfnHyXv/7bZ2htaWGgu5df+5UvYmlJzLKIR6Norfjggw/5sz//c+yigzYEWZ1nIZPhg5MnsUwLUxgc3XeAr3z51+js6OLrf/+30SjqkkkKto2JKAU0kQhMw+SB++7jwYceREQMPjz5HgKFQDM3Pc33n/k+Lzz/PBiSQrHAQw895BodCN9BtiRZqxGVzOfYg5ZuAQJU7gvr2YELAXbR4egdR/nDP/zPfHz6Y/6Hf/EvECHzHyLEtmKLCdG2RQXb4vbWqvQWCCFBK4SWbpQEpxYhWhqORGgNyk2uNbeQ5WevvcZLr/yMPYcP8Af//g8o5HL8/IWX+Vf/079kd18/X/rCr3DHkSM4WnPo8H7+1//t32CYEYrK4ZU3XuXDjz7kq099lZamJtdYwdFEpIE0BXVGBKUcdL7gEiEFhveRWuMUHbRSiEIBnVFox0FqiJsWT/zKF/j1X/mCF79VgCFRSvPCSy+C0gjPFFtVnbrysC7lH2+dg9Z0Zc5IlmUigH/0D3+XH//4x/zoRz/il3/l86tcpxAhQlwPhBzRDQOPpxB4PMbq4BsdaAFvvfMO//lbf0Rf/wC//fWvc+zoHSQLJo6RpP3xz/HgHcd55aWX+N53/5rp8Qlad+zgT/7sv5Ap5L0QQRpbarSAf/e//zuk9uLR2Q4P3HMv/+C3voHWEkMKV9ipFUI5UHSQSpd0O4pFMmyYBpZleRG33KR/OO4N46NjPP/cc7zw8oscP3EP9Yk42k+LXj5KPzDekvlaB7xqTNNwA2mGMa5ChNh2iL1H79V9O4/w/We+hZC269UufEHL0pc9lGBcZ2jXSfPyxUHOvfwzTnT3EYuaCKXLbhNoXH2IG2tOo4UmU8yTsYvU19ejlMbCDTTqBAR9hhRIqSkUC0hpULAdiih0IAW5FoHIBl50a9MwiEuLiDLc+HNenbZymF9YQDsOLQ2N4AX7FAK0UGTsPJlCgWSkjjoriqMU2hfDCdexNJvPEonHiEdjRIRc+tT5gVB9guEF9xRCYDtFBi8OIjvaOPBZT0dUFrhymQ408MWf/MmfYDs2v/u7/2hj67YM1ePkhQgRYjluUI4oIGbZ0jbZhnY3D/FIlHgkCgoUEqkcTC0wvEjYgEso0JjSQGtNzLSIeiGShdaeocDSiNz+T0O598CirYSUkoZUvRssVeMFDxWudEwKYvEYkXgcQ4F27FJsbIEAIahPJKiLx9Be+FRTB2KYrnYfF4I1B+8LXYZChLhhcIMSohArY7kavyRl0iCFu7FXggAM4UbsDlqG+6kaDI8YKAGOWLxWLsXy+WY/9psvVnRpgquz8sV1gsUIEiUCp13eziODNY4AQVP1gOm6lmjtWbcvyb0TsCbcNmyGI245tSyvc7XUdPOdglfVh+r29+uAG8d9sdLyJHvl614lYj1sZqc2CWtJ5bAVba7U7kr99cquYf3NxcX1F5pA6e1y+NsOrmS7OaFgLgPlbcwGKDcithYuJ6OFvyl7TptQkqH5G7oOmD/7lmhLmnHAF+u5NelAfRI78PBIjyj5lSivaZ8uiFJNfv+Wjkoqj1nRYknKnOC2ESwSfMRXVt94G5KQIMQSa3b3sljOKNV6Mcr3+Gr3lAitRpVudnDsAoWFDKbSRKVEK7VsO9RV89NUIp6Ls7QY8qjydS0qXSdQtjp06YalxN51NfAOEFIGC7j3aO25HQiEIcGQELFc0a4AcA8KGw1hpdEoFBJFMZtFOwqpXdWB0K6Ri/QztwIIg9oLXQXLcgwFO1GD4ArlHoJqla+F9WZXXW97G2mzan0K4nUuayOE+/eSNCv+4aEyQo7oBoUQi7nfK2P5puN+o0vvy2rPwIsb1cobmW8csRaU1DtrK7aWFvBPyFqLMiJ5feDSBVeU+eE7b/OLV14igqC/s5umeBJL4eZXWlbO5wHLRqAFhhZlRCNAiLySS071OkiIXF+sautXk/4GDys6OJcqkFQvwHUE9HTCy3aotca2bUanJriWnubO+0+w7567MeuTG14EgWDsymV+9sMfwEKWPc07SVrxwHV/bry/q1FeoVYmKNUQmJfKULXLrwe62qElABEgwFvW7vJxCiHI52zGF+b48MJ5HvrVJzh8393IeDxAiKojJEQhQqwFPkcIoBTvv/waE6fP8ek9d9CSSmFqgYXAqLIn6Wrk0eNqfc43mHrb43O3nBCVDia+1UpZn/wRlUoXHfb1djNj53jzow+pa2ml/9ABlGm4RAvWTJRs2+Hi2yf5+I3Xuaurh517WjG14ekjPQMbLZaMOiRE17vdatl+LQ4oyd27D/Pq+ycZOX2BT3/zawjLQHhSnGoEKSRENyxEYNPaTl3HjQ5fpOwZuKxnt1trc7gc6/z8PA2xGO27d9MQT2DgcjRau0FhKxlbVE3h7nFX0nP+rSSpW24BuPirEgItJBVJna79BFWtV5SJ9Spx2j73qQFLAIpUJMqn77qbkx+dIloXp33Prhqt14ZyHMZOn+POnn46mxuRwosh6Bu1aNBSLx111eX3ZYbVbqjx3JSlRa9cdpOfu1XlWb8Oz/qK7Va+plEUTIlpWjxw/BhvvfMO77zzC47fe2JFehoSohsGAaITULxLTxZWOoPcdjSpzErCP9EKd9Pb2IQ4QBGwKemaVuqNANtxUHaRy2+fJDo+y46eHhxle0QEHOGZsFfomkQiKsrnXdP5YjDQXnlZXf19lngZZwOEIVhVLQtEqYKircAmpJdyS8t0cMHeC9x0815pUwvE6Cx6aBzZ3QXxWIkAr2rr9NoYHr7K3l39pBzthYACodViJcI1uNE+1+YPvhI2zBHV6v314IhWcU8VLvj6tluFI9IgsVFCYtkOjxy7h//0Z3/OnQfuwmz2AhJXsTsICdENCveE5/rs6OCLd/tRohXgcUTeJuUqjf1Lm39aFLg+VapoM3FtmMjUHAOdHRiBzW+9PrICvIMHpWV29TOe0btWZRaHsiTqUBpvo1/c7MUiPVk2FUL4OiDtpvnwywU4jkp7bk2iJgIiMgGd3R3kZmfIzM4Rj8e8r8sNI2rj0rlz9NmCVKLOE8Ut17F5EaIW/6aCkUrw5nUZMgjKfdSWXl97lSu36R9Ia6GyXve6tluLKdQgtUIYEtspcuzQQUzEil0MCdGNBgFNTU309PQwMzNDR3PjdvfohoTWmlwuR0NDA6nubpZHKL9+EBoMYdCQTGFlbKSuFZZoA+1IgWMrtLKR0jMIKBQxTROtNZlMDkOaRKNRpCEQwihlrHXQ+DZ7vghrSd3eZq3RFPN5FhbSixlrhcS0TBYWFpBSYEW8bSLAZa0G9ckkI1NTFGYXiO/QYK6yZIAY52fSOFYMEqtsNMS2Q2mF9Hj3nqY2pMPywChlMNEm4Au0Te8kdB1l7OvGze9wuiKEu0GkmhuZ7Gzmzbef5dEjd9GciCO1IigeqKRnWES1U5IvqKnMWrunzWom+zXkMqtCmYjNr3MFrkXAEqs7pbX7QXN1aBjdUE/Pzl2gDYSSiKCl4QqPsVIapaC2ErpSpzSqWMDEDRWkla8wduuQQlQX81VVBLscj7tE7qm9mLe5NDLM0z95lv179/Logw/x6s/fpKW5GSklr7/+BidOnGBqahotNfccP87k1CR/+td/xZlzZ4hFoxiGgVKafKEACAyXopGMJ/id3/w699x9Nz9//z1Onf6YE/efYO+evUSkwasvvFiGQrEAACAASURBVMybb77JL/3SE+zfv4+IYRE1DBC2KxorddtY7H8ZTNPELhRxCnbg+irmWeCJGTWOLiKUhaGVx7VJlFAeYa2iq9DVzyXLfJ8DBhiq5BbhI/ie+O9N5Yol5WuullytCi1RuprBgfKepervnFLVr1W1utUSpe3K11bZbrV60TZCa7R2EEqQisfcMGBaUJSSyJL7vdZEyBHdsNi5dzfOpx/kjVfe4OF9B0nGYgijigZ8GWoRDfdlrlxK1K6+qny9EpEpa3PZS75KaOFZ3CyKmxynyNkL55GxBEcffgRiMdZMTHA3O60Dx+9KepIq5RQOCgetHfAIkSgdECoEX10s7fIqq+hqUcLQ9Binrwwyb+eJ1Ce5MD6KqotjWRbTTp7R7DxT2Tnq4/HSKGwJT/7mV7nn2DEMw+Dy5SFe//kb3HHnnRw+dBjLNMG2iWmTXDbH0NUryKhFQTkUvQ3/7ZPvMbBvL+093fynP/oWx4/ewaMPPETEkIFpup5cqC6JDq+bODpoCVdLAQas7AC6lnaD758fa6QyIdpUlNpdn1XcihCqbBgKhI3nuFgTNxEhuoU5oWUQyEiMzqN3MJPJ8r2fvsBdO3cx0NVNJBJFCLkCRwSVH+7aL1s1i65S2aq752oIEevauFynRYFSCkMaTE9N84v33iHZ084DTzwBrY2us6Uv+6+i27gZobVmbm6ezs4uNwbhtatMZ9K88Od/xvz8HACvvvUGAF/54peRUrpR3AFpGDz74x/zwvMvkM3mUBpefuUVEvE4ylH8g7//DT79wMP8v9/6Fj/52QuoiMFfff9v+OIXfpWINFiwCwwc3Ef9jhZ69+zi5JnTdHf3sG9g5/WwDwtxm+MmIkS3FwQQi8W48+GHOLTvAFfefp+3z5xlYmICIBBhoRoqi8L8wKaqogmxcGPGVYES4FQ8D2j8nEOVuyJcT/h1GA8Ir1/+1te7s5fHnnyS5J5edH0MJTyxyNZmeFwzSmGQVrmFayAmTdrqUvz6Zz/PqY8/xopGefCLX+LJL/8askz0Z2qNsEycAMOigSef+g3uPnY3SmlspbCLRb733f/qGSjAN77x22Qp0rl7J2fOnSOeTHDh7Cf0dnczPjnJu9/5NpcGL3Hp/CBH9h9kT3/vEgMy4Td0M0J44lDfCrMkrtrYs+TrQ4JxessVC8FXc52yglWgTDzoR4BwexVodfsP+SEhuoEhEUhhYLQ1s+fzn2Lv5x513xklaoir/U27CkckAOFUL6tldc6lqpTEu1D1/fXbrSIq9MV21XRIouwrCVpKz35q9Tqhim2vKKbYOHwRYKFQIJvPU1TLQyG53XHnUQqBFYkSiUQZvHyZVKaFq6MjNDY18ZNnf8zbb79NPp9HCEE8HseUBspx+K2nvkpHd5c3JxIhDV5+6We88tJrFAtFDGmAUkzPTHPirnsRGNh2AaRJoi5FJBJDa0lzcwsXLw4xN7dAc3ML991/gvaWHezY0YphSlBB/UIw6cdm4nrxXdVEsOUiWhH4uUaRr6DMRF8FnjCXIOjSN8ozK/EOKpsdeifQhxIxQpUp0bZf/x4SohsV/r4sJEJEWPICSW+DrnmMqkGIZDVCs17OwlfkqhrEZu06nFLZYDn/8FqSwonF225Q+CbWJ099xLf/5nucGbxQ2crOjxkoBP07+3nqyafIFfPEHRukpD7VwBd/7dd58mtf5ZlnniESsXjkkUdI1SXRtiJmRbg8fLUUX9ABjtxxlLuP30NdvA7TMJDAd779HQAiEYu3334LZduk6pI4BZv+3p3c/2tP4tg2puXm31VKM3/oCE3JlGtCHZC03sDTvnJoGeV4GiJfB6lwytKNbAbKX4nrwbzrAGFZHLNyLdiERGl321jUXwYNTqoTIKUW76sdcmxjuI6EaDuo7Ha0GTxBbeITJkr/Vbi2SoKx7BZR0w/E18esCyt6rK93fpaWq6X5WnPNQmw4IOdacOzYXRw5fhdFIaqYey9yhRKJgeD06dOk02lsuwgCnnnmac6cPUMmk0UpxRtvvEEiGidqmjzx+GexEjHisTiJujpSqRRvv/UWH5z8kIX5BRKxOPFYDLtYRN4lyOXzWJEIk5OT/OAHP6ChqZGW1hb+6Ft/RDFfoL+/H8M0yeeLvPeLt/jS53+Fh++/e9tCIa8W/qastWJ2dh7DMEgkEhiG4a23S6CUEMzOzRGLxTBN03WY9R6uxeDBIIVkbm6eWDyBZbmjV0pRLBZJp9Mkk0kikQhCCKQQCCmxVSAL2JJN3w+Uq73nTyIUzM7NobWmvq4eQxoopTBNSSabJRaLVCQCSrmEU0hZsp5TSqGVxpKGJ3b0DHyKDsJc9K9yLQsV2UyWeDzh6RaXEm4hBI7jlNpWSiGlZGpqisbGxk0lTCFHdLNiNftnZaOtqozUSpb7VaVrJZGeX8vy60vDUq4e11MxLlzhJxDQ4ayCMLlMpcBQfpQE9yVWfrTv8nhtXgRrCwMDNxZdZSzaHSsEDhopJFOTU2QzGTe8jaM4ducxCvk8UkocxyFZl+Ta1as4WpGZmSGZqKM51chdR+6gqb6RluYdvPLyiwwMDNDb3U12IcO+XbuJmhb33HUMx4S/+JvvsqO5hY62dqQ0uPe+e7nvvvvQCjKZLMOXh0pjXwuWWL1thiHJktN7IMBtmbWW1mDbmmee/lvaO9p58KGHqE8m0UJgo9BK8cYv3uTnP/8Fx48fp6OrE+wCra0tpFIpLM/OWwhBppDjP/5f/ydP/vpX2L9/HxpNJBLhlVde5aWXXuKb3/wmvX07UVrjKM3Zs6f56NRHZHJZwLViXORRPGMSYPfALu45dg9RS/J3P/oR8UScxx77NMm6JBiC1996ix/94Fn+6T/9J7S1tS0Zn6MdtIDZhQyZTIaZ2RmmJ6cZHxtjZGSEc2fOcu/9d/OFz3+euro6rowN853vfId//Dv/DQ1NTQhD8vHpM7z62mt85e/9Bqn61JI5zBZyTExNk8/n6e3qdp24lUYpxb/9t/8b//pf/2uam5pLRFZLgXT0ut5xALNouGaitgEJ5YbtL9VmbMSA8HZJ5XAdt0pR9kfQxHRZOJFyLqky1yQAoxbXs9JQaumBSqaoy68t+u5vDJs5203NjaTTadLpeWLxKIaU6JLeqQYXJ7zxKF0i7P6oVUlLHdDDlU1JNY5CB5M+SYkSggcfvJ+zFy8w+d4Ep059yOx8mjvvurMU7qaoiuSKeXL5LEU7z+jYKM1NDXS0t/Hqq6/wizfe5Jc//3ksQ5BMxKhPxvn+D55mfGqEzz78KHVWFFSRiCF47ifP0tzcxHx6DrFQoCnvcdC2wkRjaoWhTNfHpDQvDpUVll5YqpKfS0DXt0qC5B98FK6hjEsbPJ2Khmw2x5/9+Z9zYegSjiGwolGe+Mzj3Ln/MHHPunQ6DkZU4UQkRCI42mZqeprvP/dj3jp5EiMW5fIbL5JNLzB2dZjffPIrPPHpz5C0LBzH4ewnn3Du4iDnZ2f4+cVzTEchn8shlOa1jz9k3M7z7vmzDE2Mc+jAQeqTSS5cvsyb771LR28XiYYGioU8g1evMDY5yfE77nRFnFoSiSUoaoVta66OT3LPAyfImxbC0URMix88+xwPP/oodQ2NTMzO0lCfwjAMtIB0Ls+//Ff/C5PpORACyzBobGhkoK+PPfv2cuzBExzs20kynkArjdSC6YUF8sKhaIDUJnkk8/kiyrBQQiK1l05Fmnz44Smee+lFDhw9zLnxEY7ecZQPz55GOYppS/H8+7+g0YojUBw/fpxUMuG+NUJSohrSO9it4nAXckQ3E0Twl0ob5Bb2pSKuJ/+y+Th48CDvvvsu586d49ixO5fI2WtDeBaGixLUchX4hqE0hUKe119/nZdff42mHS08+thjDA5eco0TsBfNLLyGFZrJyQkOHTzE8NAV3n3zLR575FGO33WM9959F6Ghr6eXE/fcy89efYWOhiaO7jvAy6+8zNHDh7nzjju4NDjImcHzTExM8s7J9xAask6RwcuXuOvYMZQQVRMuVhiEe2AKxoHbDHj6G8Mw+fTjj3NvLodjSH707I/IFIr85I3XSM+nMS2LwaErDI+MkR+Z5fO/9Eu8c/Jdvve3zzA6O8UDjz1GV08PkWiEn/7kp9Q3NzGdSfOTF1/k+NG76Ons4p2T7/PGO29jSIN3336HC+fPky8WyeRzXLh0kc7OTp5/8w1ENsc/bmkmXpfAltDQ2sIXvvwlJmdmmJieZnB4hN6enfTv3kMymURqGNi7h/rGRr77ve9y+vw5slIxmZ7n0fsf5p23foEyBLsP7Gd0aopXXnmFL37hl6mvS6K0g40imqzj3/zP/yMtrTswpMQUEqHckE0ojaEURS8VSUG4DIdr+arQSuII1wrWEWCjyaRnMQ0DKxblR8/9hPc/+ojh+WnvGRe88Oor5PI5GttaefHN1zEVGFrRt2830XgEww3msy6EhCjEbQmlFH19ffzgBz/g2vBVjt5xxCWj3s4uaunoPJS0g8IPl7N5EEAyGudXP/s5nnjiCerq65GGyffGniaKBCXRjsZZyPPaq29SF48j9x2gMVZHMhIjP7/A4w8/ypEjR/ivf/ltfv6z1zjQv5uYknzukcdIT079/+ydd5xdZZ3/389zzrn9Tm9pk4T0TkinJSFACiIoK64iKrqKBWHdddey+1sLYFlddd2VFUGUpiBqpAmhhQBpkBBCSK+kzaRMy5Tbznme3x/n3pvJZGZShwB53q/Xycyde/q5eT73+3wbtmMz/6knsIRg2nmT6NW7FxnP45d334XtOAwaPBTb06Rdl4ONDXgq25tInGDgSQ+VX3JdRVtrgso+vYgVFfD8Cw4KTVsmTV3LIZyAQ0uilaDjYDsWrlLE4oUMHjyM0mQLBcVFuJ7Lc089T1XvXgwaNBA7EGD99m0MGHQO5aqCaz7yd+zaX8uosWMIhcOMGjOaWGEBCs1tP/g+11xzDWOGjSSQcYkHQqTTacB37Nu2zVNPP01bMkkgGEQIwapVq0gkEvTu1Ysh/QbQlkqSTKdp81zseITlb66k74D+PPzEX7ly3hWU9++Lzri8vnYNw0cNZ/Tw4diWzN/XrVu3UlNbC0ofWRRXaUK2zcB+1USjUTzlkdEeb++voSHdRiQUISMh4bm0uin+cO/DbFq/gdmXX84ll87iS/94C1+4+cuMnTyBGVPOpyASY8yEc/nZz3/O5z/7GRYsWIAn4ENXXUlhIOxXxTyF/FsjRIazEikloVCIT3/qBn55xy+5/bYf8KUvf5GSkuJ23SSPMdj2YH07mTWzSgqLUFIgbAvX08yecQm24xCLRlDK9z01zPkAtpQUFMTIZDIopQiHw9kCpjB7zhxmXjaLimghAQ9cKfjQVVfhKY+hQ4cSdULEozE85ZLOZPjEVVcTjsUpLizE8jRpN8PEcWMojsaxjltu85OV7ZbsPT0NJqMQkmQyyVNPPcXgMSOZcvEFHGioIxKP8cELLsSSfmDCPQ/eT0VJGVfMvJR4OEZVn94caKhnb91+hg8aQlq5OLbNiGHDGTlqJLZjEQ9EKCwswg44HGps4WBjAyXllcx//FFkMMhTTzxJTU0NqdYEv9n1f0gEydYWpk2ewt9dcw2up1FCooWkf3U14ydMxA4ESLsulpQkMmmWvrKYjOeCVkyaMpnFK5YzY9YlvLpsOXfedSf1dQ08Mv/PPPb447Q0t5BOp/j9I3/kq1++icryMrQUYEn++Mgj2LaTt85zAbEWAgvNzIsu5pKZM5EK9tUd5Mc//y8ASorL+MDVV7F+62a+9vV/4dxRY/jSF79I//79UcCqN98gFovx8B8fZszQEZSXlbHk5ZdoOlBPzHO4+uLL+dZt32XKmHMpHjESvzuzPOliG3aPVukwGN7NaCgpKebf//3faT7UzLLly3jxxYXs2rWLtrY2XLfrelwxJRlfWsUHzr/w6J0CRzhEOmtj0QkdHe5o7Q8ongZPYSOoihf4u3FzXz81VfG4f1SlcCwLYVvgedmzEFTHi/1gEa3QCIJaE9YOStvgBP0E52QCKSCoNQN79fY11vOTlB1bMrCiHLRAoLJh0Tmh7rr+mhCamtq9rJy/neRLBaQQKO8YrRja3TuhNYd27abfhCntwv99H4TWipKSYr5y81f45X338OLPllFaVkZxaSl3/OJ/mXHxdM6deB4hLBwpaUsmCDhBtNBMmzaNHXt3s3bTBla/9RYqo+hb0ZuScByhNYXhGGhoS6Z44aUXaWtNcOedv6IlmeBvjz3Bl77wRZ5e8DQFxcXMuGQGxYXFSFcREBKlFCnXQymB1hJPC+qbGogX+c/N8yCp07j4NfsE8NKihYwfP45IKMDkSRO55oNXYUsL1/OQwiISjZJIJKjff5B4URFYNm0tzdh2kH/+x69RUVmRtYbEYSGyLBwpcGwbK+3RoOqoKCjlq/92C2XFJQgleGPrBkaPGMU/fPyTFIeieJ5fH05qWPLCy1ieRGQE//njn3D+1GksX76c0tJS3IDN4teWM2joMH70o5/w7W//B0P798dBIo4q83N8GIvIcNYjBBQUxrn88su4/PLLjrm+1hrRnGDd089D46EePC9BJuOilMJxHGzLRmv8qtye1yFP5rDDSrSzOkQ28Uog8Dy/zp2nNUJafrX/dkUz06k0CIG07HY598cfTdgRpRRVVVWcN3UCpSOGgW1zvH5ErTXa83j64UcIhUJdriOl5KMfvZY77rmb0rJSYvEYQ4YMYcGCBRQUF2bbaGSvRQpefGkRLyx6ka17djJwyFDmzruCvz31FE8/8wyXXjKT1atW8dprr/EPn76BaeMmcuWs2Vw6cxYHGxv53X33cvUVV9K7rILtGzZT11jPiqXLiIUjuOkMN335y1T1qqKhoYFUOo2nFXv27mF/3X5SmQxCZqPwVIbiaEE+/Hn79u0MHDaY559/nnlzr2Dv3r38+Ef/SWNTUz6QUloWP7z1dmzLQmvFunXrkFLywAP3s3HjJtx0BqH8yus5X+d1H72WK+bNI2b5pUajdpCIsAgiEQgCSuJ4EPAE6XQa27YJBAJkXJcbb/wCGe3y1W99g5tvvpleFZVcdNFFzJ8/n9dWrGDZsmXMnTePyy69hN69e2eTpU/4I5LHCJHh7OV0TBEdtZuOO+0Q7XgCSNsi1drGoaYm4vE40WjMrxunFC0tLezetYveffpQWVGFqz0s28ISwp+2yeYqaUE2uk+DLXE9j+XLX6NvVS8GDhzoR6AJjYvGs21Wv7maisoqqqsH+KeeyaC8jN89VrSvtN1TFRWOjV9CJ+ehU7y06EWSbS28sXIF0yZMYPbsy9m4fj319Q24rgdaIrBAW4wfex7V/c+hoa2ZtZs38PSCv3HexPG8vOglfn3XnTiOw+c+9zkmjz+PiBUglUjiODaxWAQhBa8sXsyggedwy80303ioiYznkUwkWLp4MZ7yvxw0NTVRUlREOBBkysQptCbaCAQDPPnkk0yeOoWiijIqy8qJFRQiEXzqE9fzw5/+hP3Njcy8eCYa6F1ZxTe+9i9U9ukLQvBfP/kJSimE0mhX8fqKlVRWVNCcaOWiiy/mkukzKIjHCVgW6XSGO/7vTizpoD1AHm6sKQTYGnQ+kERhCU08Eqa2thYdsIgXFBCNhmluS2BLyY6t29j41lrmzZ3HpZfM4oH77+dg3UFGjRpFcUHct1OV8q2xk/xIdC1E753gJ8MZpYcSet/FHNlmwC8UeziDorvYuc78Th3i7bKi5c+MaWpra3n62QWMOW88U6ddyJKlq6morMRxHF7ftBk3FGbl+o04lsWUSRNIJZIk0insgIMW/jfdwsIiYrE4UkpSGZdX3ljFyJFJKgYOwPNchGWRcF2eeu5ZXnh5EdFolOLiEtx0iohwuHL2HMYOH4FGIZXOh28fWb288xulFWh1uO39cQfxt2+yl0/+9POyRLYiuxMO8eaqVax6bRUfuPIDbN22hRefW0h8bpQv3fxlpOOwdv1afwpMaVAu27Zt5alnn2bvgX30HzqIGTNmsHjxYpqamrho+nSam5pYumwpA/v0o6h6APfdex9rN65nX309CTfDxPHn0ZJqZe3aNZRWVDB0xDAefvhh5lwxl/LyUmxb0trayuixY3GCIV5ZvJgZ0y+m/8BqFiyQjD93LE8/+wx9Lp2F7UikVgzqN5CPfvRj3PfwH2hra0VYglAsRFE4TLkTQUlBCAvhKqQdQNgWu/bs5bI5s9mwfh22kJQWFVFZVo6lBWnlovFIWRpPKlypSFsKK2iDJdFSo1Ke/8VEgCUEqbY2NmzbwhMLn+Xmm77Cg/c+wI6336b5UCMrXlvOBVMvIGA7TJ40id/d+ztGjz+XQCCAcj0cy8r7qEQ3eYrdYSwig+EE8ZvPtR8mT2/EHPh6lFEuXtCiUaVZt2cHBbv6sOtQHbI4TsSJ0GZr6twErbgUODaegFeWLuGxJ5+gqaUZbUmcgMPHPvoxpk6ZhrQsXM8lg0ekIE4oFqGtuYUNW7bwp0f/ShKPj15/PZVVVWzdupWFzz3HwCHVVPTpRUZ7WIAt/Vwxrb1uewL1LH4O1dKli3noL48wacoUxo4eyfhzx5JKpolFo1gBJ1vYN+tvEv5zGz1mDFW9q0i4aRYtW8xjj/6VGTNn0K9fH1pbWpg3bw5//dOfeXv7VvqWlzNo8EBGjhtFUUkp9/3hQa6+6ir6VPVizarV3HPX3TiRIAEnwOxZl+E4Di0tLSQSCYYMGkRTQyPhQIgB1QOIRyII1yMobT7+kY9yx9138om/+yhDKvui3BRLX36FSRMn8sgjf+SiWTNpSacgGESFLDwBKmSRDgukFKQTvqUyeuQotm/dimVZhIIh0BpPKT9EW2XbImZz3ZSANC4Hk02s3riG1SvfYMy0SSTcJId0kuJIIVv27cSKBtESpk6dzBUfmMePfvpTvnDjjfSt7IslJatWraKxsZFDb7Xw5urVjBszmkAwfMpP1AiR4RQ5eyyh08HRFkTnMqaBDB5LXl/BrgO17Go4wL7GJoKhKMtXr6KpsZFEMsnCJa+gXc28mZcwfqzLvA98gLlXfgDh2DS2NnPvfffy6BOP8+zzz/vlZKTkYEMdb761BlsIDuzbz4KFz3OgoZ5wUZyHHvkjruty6NAhlJvhUEM9r696nYjt8OmPXce5I0eh3Aynp0zCqVFTU8O8OXMZe+44YpEoUkpiwQitzS1s37qNtkyG7du3U1Fa7vfyEoLXl7/GMwuepqZuP4NGDOMzn/gkkViU3z/wAOeOHUvfkgr+5Yu3cMd//4LyUIyZ519EGo/WZIq4EyKQUchUhjkzLmHKhAkseP55Fi58gYb9B+hf2Yvd299GeIpUSyt/fewxrvzgB8m0tbFmyybSbQmkp+hVWIpMuKxcsZL+syt5+A9/JJ1Kc+mF01m+PIDlwcGGOv75G/+KY/lDdNLN8GH5d1gKHrr3AWKBMHEnSGEwzLLly9j81lqSyRQKjQwFqDmwnynWtPy92r59O3t27+Gb3/gGpaVlTJo0hVAgRO2uPdx5z2+wbJs3N6zjM5/8FEXBKBdOmooWELZ9q+fNN1fzzDPPsG3rNj79qU8hENx71z2c078f//CZz1JVUYrSAuskPxJi4Ngpurr/aJ547G4iSvmVFXJN4NvNLcK7oVi4wXDm8TyFaEmwYcELWI3NDBoyEK/d/5TOcpBykWZHz2R1IUTCb/f99KIXiJUWsfLNN4lGC+jbrz8Hsq1AhBC4rocjLIKWxYSxY1jz5hpWrnqdS+fMRqFZvHgxF51/IZMmTEIAiVSKO+/6NeeOG8dl0y8BYOvOHfzp8b8yaMRwho0eyR//9AhaKWZffhkVRaW0HmrksT/9mcsuns70KdOwVDZS7hjRb8lEgh07d9F76kRKR/nBCifSBkO5LgsefoRhoSjVZeWHAyay3/pTbgZpWQhL4tg2ytNoDclEG2/v2klzW4KikhIqKqoIB4JIrdGeIhgIklEertRs2bGNxkON9O3Vh/LychxpERASL5nGlpK06/k+NK14e9du+lb2Ihr2+5Yr6fvjUukUtmURCgRpSyTQSmE7DlqAlBb79tXQ0FBPLBajoqKCoO2QQSGkxFJQU7OP0qpKwuEQuC6NqTa21uymX3kVhZEYoFi9bi0DzhlIAQHSiRTRwgKSmQw1e3YhBPSrrkbh+/pU0GLdho1UFBbTp7gUC4knFa3pJJFgAEdIpLTxspGVKTeD63l4tiTuhIhqG09plIAVq1czfOQIavbso6S0hGAkjCMtFBpHSFoPHaK0uJh0JomdFaJcgIjWmramZgrOn4woLSBtWQTaP/9cIrYwFpHB0OPkfCl79+7mrXVrOVBf18WKuYoBFgVFhYw991xam1uxgiFsYRN0QnieoK01yds736atrY1eVVXEIlF0OsWhcwYyd85cGpoaWfTyy2SUx5BBg1j71lqa6hqZOm0qtuPkD6e0As9vQeApxfxH53PoDw/Q2tZGeXk5O99+Gy+ZIhLwv6VbTgCFQCIRPZhDdUykRChFwLL95FqlUWk/1F4AoUCA4YOHZH13vt/Nj20QCMtGKQ8BOEowvP+g7HYKoUB6/n78RrQKx/Z9gA6S4ecMzH6RUFmflX8PQgEbqUBn0oRtC7D8Lx4KUC69y0rpVV56+PSzLeG19ivP9elViQK8ZBJbKUqETWmfgQB4yheLycNHAhKpIFIQRGmI2g6DBg7I71cBDmClYeo5w/3rUhqJH0oesSP5ZqlSCDwlEUIQFNZhJciAh4cWCqHhvHFjABg4oF/23EEJjaU0UnnEo1HS6XS+PFB2PrCLB6foqsCVESKDoYcRQiClxNWKg4ea2FW3v/OKfFkhymQylKfLGJAcQlsqhZNOkUglKQkGGDRkELHCOHtqa6iIx5k4ZQqxcASpXEpKS3BRXHXNh/ntA/fxL5/jLgAAIABJREFUwkuLmDhhIkMGnMMzTz1FQSzCuPPGI1FIrZAotFDE41GmTJlESmeoObiPRCLJ2LFj+ei111IQjbFs8RJeW7wUKS3UmRSgdggp80OaVh2LbWrQCqFywRHtfEVI0IL28X/QMYerw7FyNVtFruKGv6VsZ8zmmuHl19f6iBmkjrfN6mAI55t4tw+TF+17CHHEbGi+m1G78PSOQ7ylDgfHdLw+dYwWGbn1rezu26/p5HyD7a/3FGdpjRAZ3se8eyL6tNb07t2bq66+iozsvEqx0IejyizLwrYdli1fjuu6aK2xLIvly19l5esrOXToEK7nsWnzZoKWTUkkwgfnzKEkHMOxLKoqqygqLsFVihGjR7F50yaWvfYqkcICtJQoKfJ9i55a8DTba3YzYdoUwgVxFixYwEuLX+HtXbs4VFdPYSTK5TNmMXjwIH+gfJeIUQ4hj6x+p3W+zVyH5R08J3F4EvLYKVjtp6veXff2ncKWWvpmKdnMAHE8N85gOHsR3fZe6hpHWthY3fQfPLxfDdkeM4Ka2lra0kmEJUmlkkyfPt0XItfFdV2iwRC1b+/Acz0KCwrZuWcX27dsobK0nCUvv0JhMMTll13Gpk2bCAQctFYIrZFZS+KySy/n9fVrWbxkOTv37mH27MuIRaLs2L4dnXEZOmgII0eOJBqLnUBhWDj5ZojZu9HVQNTRN3VUJfozw2mvUqNlto7EmffOy+OOFpDkW3Vo3e51958F2/Iktk5j0YYnbT9BO1trS7zrW2AZDN3RM9+EtQCdzdEQwkMLjyMDDro+bi7XojOTqGPXpjSKc8eN5qVVr7G9Zjd1jQ0EkFx44YXYpEF4SEsRcBR2QNDmtfHgX37P0qVLufKKK5k29XzWrn2LosJCSgsLmDplIi3JJNh+Po7leWgtaG6op2+vXlw2cxYvvfISuzZv4bzRo3AyLhdMm0bN3hru/e1vuOaqqzhvxAhktvQP/l6yOUKdX2wu/0ec4LPQGj/Kr13Okr9LmS1V1L5sUqd3mSNX6KIM0QmIx4kKTX7o1se68q6FVOjsNF4X61vttz2q02p3An184i10Z+t1ta1/fD8ox/ejta/ccfTOD29lpuYMhk7pOHi9s9M7CkilUqx89TUaDu7nuiuuZuSIUSx8YSG2KwjiYCPJeBlUwkWlFclEikQiwYeu/hDTJk/FQjJh7LnYlkVT0yESqSR79tVyqLEJJxhAWhb79x/g1SXLeHHJEjISZl56CZdMv5hlS5eQbmkjoCRXXHIZqaZmavfW0FZdTWHo1PNGjoWZlXlv49ciBFep4/pvYyM8fPPJPtPT6AbDe4a89ylX0/Q0/98RQEEkzueu/4xfskdauMqjV3EJhfECdGERnuuScV2WLl9GQWGcUcOG0avPDALSxpEWwvMbolkClixcxAuLFpFIJek/ehh9K3uhXY/iWAGTx57LtEmT6TNwAC3JBA8/9Hv27NnNnMtnM2HUGMKBINdf+zGEBQENUul8S3nvOK+7u3oTx9z27HSbvAc5LDq+RSTxvDTa1oh8Saguo+ZyZla7znoGg6ED7cvwaJRWpBIJZDJ1Go8gjpjm8jzfdyuUX8nAFjB92gUgJbZt5X0oF19wQbYMv1+V2sKfUvFn5TWep5h3xRzmXjEHhfbFU/qVtB3HYuyw4dmyOZLisM0tn/0cnvDPxNLSFx4EwhNIoX3xyYeSdX09iVSSaDxOMBJGiZPJQxTEi4sJuIen5nQu/ri9X+iY1bzf5+R9MO+e8VtrjedmOHSoibLs9F4g1wmkEyTCA+0XBDQYDMdGCIETCpKWfvfSnptH8n21IBHCQiIJ2wHC0sZRAtvjyEX5/gSpsnkeOrf14YnF9jXBcr4LIUFKkMIPObYQ2Ag/QRGR9VP4r6XOdaf1W0vLblJU99cdJF5RSqyk+Miw5OO5cu3f1rKqCoKR0LHr2hneJSi0dgFFMOSw5LVluNJDW6qLAB2fMx+OYTC81xCALRl10RQGTxoHUuZL+p/JU5IKXyyy4iE6rJEPHBBHvXPEulL7+SN50epkm+7QWqOUovbgAVqCFsRCWQvsxNDAoJHDyXgeiUTyBLc2nGl27txJUXVvxHFEIsgO35faLQaDoXMEAklRVS9qm5pZtnwFBw80ZmcWbPx5cHkSy7GG6o7/RztZtL9oP20Vhf97PrFRiKMWhF9mJZdX1N0xNR32rY8+B6Vg2bJXGXb+NAaed65fpqCbBnpdobVfzaGoqIy1a9dRV1eHFFY2KbXdclL3+n2y5K+fM38uSJQnSCZcXn5pKW1tKT7wuX8gEIl2EtF3JHb+QjSHfwq/S193ptQ7T3tfluH0cyru5FM55plIOD2ea+36nCT481mBIOdcdhGxijJWP/cSbluCvlVVBMNhP8lS5PLyjtej3919ONY96q4GeC6ioqu32w9mx49vdfmOaC00bYkEBw4c4FBrCxOnnU/f0cMh5PjnnfNVH+9jFr7kgSY2bigjI0Fef+pFVix/kwEVlZQUFWBZ8hjTdT3xuTqWHyZ3zO7zbrTSqGxjPym7u4ZjPZfufPynMFaKrrsTd5bW47duT7B7Xy21TXVMnDeLfpOnIKI2CAeRE6KOUfX4X4DE0FFTdPWA0Tz+6N0IS2Ep35HpC9GRD/HMSoARop7FCNFJ7SnbnEgkkqjaOtyaOjKpFB4KpbzTGPKVs0y6OudjCVEXFonubr/dPxehQerD+3Ych0BBHNmnHIqiEHB8wc5vYJ2AP63d9Wgg7UFrGreunmRdA62HGv2acafNP3e8n8HTExCQ6y775ptr6D9gALFopIs1j1eIToTjGUO7ESJhdZpEHIsWECsqRJSWQEEYHAdt+f7Nw4duX0XC//EeK3pqBKhnORPm75mKdjqNx9TZ+axgCFndh0C/3gTyGaun07kuuq9U0FWWrH+SJydExxONpjvs23cqZd/sTjiPHy3AC4CwHayCCmIDqohpOO339x0UIpQHSuE2HaR08hhKSkr8x+TYHcT6DAlRNxYRWnYqRJBNAZIWWAKU9qdRj4P3kBAZDO9CRPYfIbLGj27Xxvr0DpRCyy7ny3U+oamTLXUucuH0C1G+woLI/Wwf/JAbhE79PggkytIoDRYSedr9BidiqZ2OwwVAa/oNHUa4tBwR6coiOkN0F2HQlRDl/y79hnx+oaoOK5nq2wZDD6CzqUUi/6X6xOPDjodcS/Ku3u36uFrSdRmevCXQuRAda2ZRIvJZ9Lm9Qc7V3FGQTyRF5PA5+VKZrXadO6/TXdjteHd32h6tRkiB5dj5gJH3ChrdxZSzh9BW9oEJ2j9vfwq76/8ZPShEZ8KncyaOeab8HIYzx+HBNV8ANf/oey6n6Fi2SffvnIQQHfdHurt9nx6O8AWJ/D+nj+Pe3ek7ruu6FJeUYDvvLXvgxIv+ZqduRddTtcbxYjD0CMcKLnin6Sr0+91yfmcfUkq2b9tB8jRW53h3cuyozC6nWtUpfz5PLiT0vXfMd9uAY+h52g/qx3ruXQnAiS6n8vk61jmYz27Po8jN2BwOOZds37Gd5LsyWbe7z0t373dOp0nRWcPqTIzaBoPBcJZxtGNfK0in0gw655xsj6izu3yRESKDwWA4A4TCAUKhIEIai9QIkcFgMPQYHa2h7GuhSafTNLccQmudjTB891TPfqcxQmQwGAw9Rm6IPewjyv0UQlBQUIDWHolEAqWMEBkMBoPhtNOFRYRCSnj77e1o7REOh5FScHqToN87GCEyGAyGM4BlWQQCAVzPRWkXfRZPzR2RSXW6k5UNBoPh7CZXFbv9d36NEH7X2cGDhxCPFYKW2QoVZ2fggszlC2kB3VYjNxgMBsNJcOTEk1+N2q9KXV/fgOsqpLSPWu9sQkK2NN3ZKcQGg8HwDnB00qfWmu3b3yaZSOG5+vR1DHkPcvZKsMFgMJxB0uk0hYWF2I7tByoYITIYDAbDO0kwGMTzvHxVBX26O4e8hzBCZDAYDGcArTV9evcmEAiQcd2zuszPe6v+uMFgMLxPaF8INBCw0YqzNWjOt4gEJmLOYDAY3kk8z6N23z7SqcxZOyWXw/YkZCR4EkJeNpeoXUPFszfFymAwGHoOy7KoqqwkEHB8ayA77urcoCv00a0T3qcc4SM67W3gDQaDwdApSin27a8lmUrguqaygsFgMBh6iK6CELTWBAIBpJRIKc8a66czTNScwWAwnAG01vTv359QKHSmT+WMY4TIYDAYehx11GLbFvv378PzXKTMrXN2Ri0YITIYDO9Cco3iTnxw1lp3ufQUJ3NMpTz27NlNOp06q3OIwPiIDAbDGUBpUN2W+/fDd0UniTW6G2ES7ZZOj3sC53gidHk8AVpplDzyrLVWCCmJFMTAen/bA7l73t1V2pYCR4HtQcYCCxDZLc5e15nBYDhl2o+84vCfNJD2YOPmXTQ0NiOEQMpccqc4ZqkbhUbpzi0lIaQ/hnV6PgItdJfvHWvEUwK07ETKtETo7sUIcfR2tmVT3xrk1dVvEwoGD1+DFAghkUKAlp1umzvuMels2+PZrtt9up3/WYMnJRnLP2bAlbgZj0kThxKyLbQGq5ObpLU2FpHBYHhnaWjJ8OTTiwiFCygpLQVA6PZFP7sXBZ1Xqk6ECIkS/mB+1D606Lrp2nEIkX+AzkRBQDcRb7oLIVIIKvoOxrIEaS9zxPSc1jp7ibl+Rp3t+HgEpQeEqAukxk9I9fxjJoHG5kaSGY1jdz/9ZoTIYDD0OFqBJyCjYenKNyjr3Z+q3tU4TsB/X3c0n7oe2P0xvyuTSSC62lx3s9vjddF0td9u6K7FTi53873VhqdzYZQoLCWR2feFVkQjEazjmHo0QmQwGHocLX0fweYtuyiv6kc4UoSwJOBP8xxpUByPddLV/J3oetP8QTrZrkv16kgng7A4xkArutgO34KTWmF1KWbdWETHFWvW2bY9MzV3uEycf0xfZK3j2qURIoPB0KPkYt/WbtjLpu176dO/H45lofRhSfALgGZfaIEWoktDQ3UbrtDtLNkZobs6nrI7Kw1O3Yo7CQvu5FFZy84XIqlBIY9rJtAIkcFg6Bmy9dPaUmmef2kJ0YIyhgwbhhMIIbT/vVy3WzX/Qrf7Wxd0K0SndtannWOKzfsGmQ2u8F/5omST+yD4etT5jTBCZDAYTju5LKBkxuXZF5cQKyylsqoaywkghDxb8zYNXWCEyGAwnCZ8dfGn4gStiQQLFy3GCRZQXt4X28qKkBAIxFmfxPm+pf1cXP530e00o62E3wbCtSCiQObC8zUoI1MGg6FbjgwaUGhc5efzLH/tDWLFvejVawCWHUYLnY8S02h0O2fOEZIkugpE8Dk8zJ3ofNexE2hPjmOkyXZ3ml3lCB3P+8fa9nRvl6ej0+d4Ula7RgthLCKDwXC60NnUF8naDduIl1YRjZWAtFFKneA41V4YjjeizfBe5f1dW8JgMLwD+DXVXC1wkbyxfhNbdu4F6WA7IUS21oHWoJRGKY2ZlTO0x1hEBoPh5NEChUUGaG5TLHx5CeFonKFDx2I5ETR23j1wpJVzLCUyVtB7h1O3Z4wQGQyGk8SfivMQJFLw0pLXiBeU0qdvX6Rto7VA6cMeanFEJW0jMobDGCEyGAwniV+7LZ3RLHvtTQoKSqis6uV3G8UvYuonpuaEqLNa2gZDO5uq24rsBoPB0AkaeG7hYiw7TO8+1Vi2A0iUzgmQkR7DsbFz5Sf8cgztlEl2X+XIYDAYXK0YP3Eyza0alQ1IENnaazpf3MenfasEbfTpfUlHb5EkW1lCg+gikUjSbmpOYz4cBoPh+MlVT/CyrRcQuUZ23RQXNZwFqCN/z9ef61pgTPi2wWAwGM4oRogMBsMpI0T3zeEMhu4wUXMGg8HwvqSjh//da3e8e8/MYDAYDGcFRogMBoPBcEaxASzlh9hpCUoenuo1MS8Gg6FLtD5Gr1SJzlX/16C7qKqd+6vOlwISWDrbCQABwuuw3cnnJ2lx5ISV0IfTbJXovoq07BCO3vHdrukuCUYe2TahQ2VsdQxbQbbfd8dWqGfCZaclR9wLbWcfnTz8oDs5L5t2m+XCMXNCZFyPBoPhVBFC+DkkGtB+iLcWZPsRiS4HGj8nKbeTdiKmrdwaiPx+uj0DTvdoprRGHhGc8U77Y47I+nzPY4IVDAZDj5JrA+66GaQWaK1QaKS0sCxJVyKhlCIQsPyade33p1XeihH5JNr2gtZZPTs/vRYhfOusk+MdHtbV0dZFdm9CCJTK2ilZAfRLGXV7C7rEr2jT+fHy59TOSgoFLdoSGUAg30eFK4wQGQyGHkKB0iAFra2tvLp0KSOGDSOVTPLSSy9xwYUXMGjwYLQQCOlLi9KaRFuS1StXMHL4cCorKtmxczvNzYfo2J9ISovq6n5Eo1FqavZSV1eP53ldno0WgsGDhhCJRfLFWEU7BdG5XXd3RUr7Fp7QSClxXRfbdnCV7tIya18+rXPBUu2Oq3zhyQlTh/XTGY3WipbWFrSCwsIipBRo9d5WJCNEBoOhR/DlQiO0Zv2aN3jh+WcoiIUoiMd4e+dWxjWPxLGyfhulspoliUXCrFmzhod+/yBf+cpXeOihP7Bh4zpisShKafAEAcchFA5x0003MXzYcN54fQUPPfQwTU1NxGJREokkrusihY0QgmAoiGXbfOvf/o2Ro0ajtT+g+wN9J74IoY723WiFkIof/+eP2bhxI0opEokE37v1ewweMqzze6A7f63bC0/2p5Q29fX1rFq1Ailsho8YQWVVL5yATSaTQWtNS0srP/v5z3h95UpcV/HNb36dCedNxnECp/KozjhGiAwGQw+g/bYPWhEIOKx6fQUbN6zjgaZ6bNtix44d1B/cz2N/ne97O6TFNR+5luHDRyCl5HOfuYF7fnM3y5cuZl/NHm7+8pc4d/y5PPjAA8yYMYshg4dy1913oZXCUx5aw8yZ07n88sspryjnV7+6k/Kyci6/fDYlJSUA/PjHPwY0aIVEoZTvg8q5eo4OKThSjKQG5WlmX3Y50y+6mJdeWsTixYsRqvO6nMJ3YJGr5ymkQCuNEocFSWryU29uOsl3v/3/aGpqIJVKoZTiq//0L0yYMAk7YAGKZxc8xbo1b/LFGz/POUOG0rdPXyzb5r1eGdQIkcFg6DGEFNxzzz1s3ryFr//r15k8aQJr1rzJX/78Z+bMmcOECROQlo1GEAiGsByH1pZWlJfhs5+9Acuy2LJ1EytWrmD16jdYsnQpWzZv5Yp5V9DW0ozAFxWJYuumzfy5qYlwOMzWTZt4e9s2Du7fRzgcRmvBnp27wPPFceELCxk6bDi9evVBIMhkMrz0ysucM2gQffv0JeNmWLhwIXv37qVfv/5MnjSR4sICpCUYN24sWmn27N7NihUr/Tbo2biLLVu2sHPnTsaPn0BRUTHbt23j7W1bmThxImWlpSQzSRrrG3j6qaeJxaLMnHkJxWXFaKW47bbvcdVVVzN16mQcx+bpp5/mf/73F3z7O9+hrq6OfbX7ePzxxykrL2Pv3r0cqGugeE4xhYXBM/2YTxkjRAaDoUfQ2vf7FMSLuPbav2f8+PFIaRMMhNEIbNvBsuy85yeZSpFobOSXv7yDFcuXUlZazC233ILWMGTIEEaMGMGevXu4+MLpDB06jLfeWnvUMVOpFEJI2tqSOLZDKpnBkg6um+FQ8yFc10UDL7/yMq+veoPrPv4JSkvLePbZ53jib4/zxS9/ESE1t932PWpraykuLua5557h6aef4J9u+Ueqq6uzQQpH2T8ILVj31noef/xx+vUZQHG8hCUvL2Hp0lcYPGgQxcVFrF+7ljt++b/Ylk1LczMvvvA8t3z1Fvr1q6atuZVBg84hGo2QyWSYPGUKf57/GG7GY8OGDaxfv56mpiba2tp4dflrOKEwc+fOwZIyO82YPSctD08tiveGlZRvA2EwGAynCyFAIti9cyfr1rzFC8/s5b7f/haJJplso7m5kf379nLfg0FcVyGFxYCBg7nq6g9xy803s3HjpTz7zNMI6Q/6ixYtYtmyZSilWbToRbZt3czBgwf8g2kB2mLAgMHMmT2Xispi/u9Xv6SyspJ58+ZSWlpCKpXm9u9/HyEstJJceMHFPPzwIxw4WEthcZQlSxcyfNg59KooA5Vm1MihfOaG6xl0ziDefHMNP/3pT2luaUCIgdlgORe/t4E/vydwEQgkLhIXodOgUwiRQqKxhMYW8IcH7mfK5Al8+ENXkUwk+M53vs22LZspjMdJp9rA8xDan2griEbRnkskFOTT138SrT2++a2vU1FeySc+cQMV5VVoS2bjASVHJemcLhE6Kj+pm/12fC/7WgrwJFj5StzQPk7RWEQGg+G0ozUorSgqKeHD11xDKtGGFPDQH37P1CmTGTFqGM8+/wyBYIAJEycTjRRQWFRCr169iEQiBJwAWim00gQCAc6fNo1AMEhNTQ0ozYTzxvPii4vyx9IamltaeHvnThqbDpJMpqmra2Dz5q3s33+AcCSC5x6OqJsydQqvvLIErTX7amtpSySYOnUy0VgI100zY8bFvP76Sp566gn279tPa+shLMtGeeAPoB2j1GRWEHMJqtlFH87SPHBwPw2NdezZG2D+Xx4hHA6TTqdZ9cbrjD/vXKQfE569Jv+nlALlKaS0EEIihEQpjRS+XyifUCxyybZd52W9c3TWBiLXjKrzkzNCZDAYegA/Zi4aiTBs2DAkmkwmTTxewNBhQ5k6dSrrN6zFcgKMGjWa8rJKNDYqm8SqdNaB73m4GZe9e/fSdOgQFRUVbN68mcrKClzXBUBKSX19PevXrWPjhk1oMtTVHSAYDLJq1es4jj/952YySH+0p7CgkL59+9LS0sKSpYuJRqOUlZXjOAFSqSQ//elPicfjjBw5grLSUvburUXK7kd4IbPJu11UIW9paUGjSafS7Nt/AK0VQ4YMZdjQoQQCAYQQpFIpPM9DCEnzoWa0In/O4AuUyspPLlH4/TCpZYTIYDD0DMIXI6UUAqirqyeRSOBmXN/BD3jKw/MUqVSKfQdqKCoqoSAey/phNAcOHMAfeqFvnz5MnTYNN50hk8nkhciyLBoaGrj44ou58MKLKa8o5v7776W4uJhLL51FSUkxUkp+8IMf5C2NtrY25s2bx5N/e5RXXn6ZL3zhC/Tt28f3tyjN4MGDmDt3Lv36VbN7926WLFmO67p4OoMUFuC1s0IUQvjTY9ICT7n+36RGaRe0X6KovLwCS1pceOGFnD91GsFg0M8BEhLbdigrK2P//v1U9epFSXEJa95aQyqVxLLtrLhppLD8ZF6hQLi8X6orGCEyGAw9QzZpNBQMsHzpMu6993dMmzyZMWPGIbREK5G1IiSep9i4YSNDhw2nIF5A7b4DbNmyHYFFv74DGDVyFPsPHOCpvy1ACEWf3n3YsX0HADve3s7WrVu49tqP0q9vXzyVITc1ZlkOmbRHW1szruvlp80CgRBVVb1Yv349ffr0obp/PxwnCChC4RDr169n+fLlOLZDQ2MDmUyGZDJBKGRx+/dvZe1bb9Ha1kIqleQnP/4RI0YM59pr/57p0y/ihRee4/bbv0dxcTFtba1Y2LieRzAY5MYvfolf3fFLFi5cRF1dHc3NzfzT1/6ZiRMn8W//8f+4+Su38Jt77sEvXyS46aavUFlZ4QcjAMFgmIATonPjzOrsj6fOOxDwYITIYDD0CLZts3v3Lh68/z7WrXmLWbNm8sGrr6S4sIhUKklZeTnPPPcsa9asQ1oOU6aeTywWAyAei/OJ6z5BY1MDY8aMYcCAAdi2P1xt2bSJvXv3YNs2gYDDo399jOLiYqqqqrAdB5V2SafTZNJpamtqeObZZ1j71lrCkSDBYOAIL8UXv/QlQkGHsrJStFYIAY7j8O1vf4d1a9diWTb9B1STTqWJxgpoaW3mk9d/kvqG+qzgAdqirKyE8rIKbNvh9u9/n7Vr15LJZOjfvxoLm8LCOFprxo0bx+23384bb6wiGAwyfPhwSstKsWwLpRTf/Oa32LJlCwUFBQwcOJBwJIZlHRaYGz9/I9KSFBYUnHlX0GlEDBk9RffvP5rHH70bYSks5cf+A/l6TjneH0agwWA4HWitSeJR2wCtCYEWOpuomR0/tCKRaGPZkiUM6F/NsOFDcdM5v44gmW5j1eo3qK3dTzqdYdq08+nTp69fu017ZFJpamr2UlZWRiQSxZISBKxb+xYrV6xg3LhxDB8+gr17ayiIF1JSUoKUEqVc6uoPYlmSeCzO5i1baGpqorq6mvKKvti2g29xSDRptM4FMQhylgj4gpRIJJBCYlkWUtpZ35VCKYXnedkKDQIlwLED2WAChZQyKyAaiUB5bt6boz2FbdmA9ksNycPlgZSXLagqpZ9s2yEwQkoL5UdMIKTA88vJvmtprGtl5LACoo5A6q6j5sSgMVP0wGojRAaD4cTw0KS0x74uhChXHfvoccMv+yOERgt/IAeBzvqU/H1kQ6O7Gmaz2xyuYNquZpzuKmCgs2KovqD665/oFFT7K+uwrbYAvyYd2cE3X4tO+NGAuXG2q4Knx3P8ky222mN0uJbGulZGDo8RtgVBTfaWHV053EzNGQyGHiFXPudoKcmJTv7lEeh8mG83Pg/Rxe/Z1/lj5gQr/14nPZFEzqo4la/aHbf1j6nJCVy7WkLIfHuedque1RghMhgMhtPNe6SiwbsFM9tmMBgMhjOKsYgMBsP7ly7akxveXRiLyGAwGAxnFCNEBoPBYDijGCEyGAwnhQn2MpwubE9CRoJrQUSBzIXua1DGg2QwGLognyJjMOToog2ET4c2Fe0wUmMwGAyG00hnbSCyuVRdYKbmDAaDwXBGMUJkMBgMhjOKESKDwWAwnFGMEBkMBoPhjGKCFQwGg+EsQxyj2MSpVfWWR/6uO/7taLoWIr9A7AkXRjcYDAbwO/HkGy+YWJEDAAAgAElEQVRo/JYIWmXbyxxZeufoga9D1ewOe+66bI/ItiLofFtx1LbtRjjtdHNM0CLT9QiebftwmHa9dvC6Od/uOZYgHEtQThahQYuj+wYdk44tLbKvZe6Rd4GxiAwGwzuO3wPo8O8qm2IiRFamtELKXBuIo0cwrdv/7recy22bQ2X7DEkhDvcC8t9BCnnEdv777UOMO+uilJVHIfI9hZRSCCERx9GmO9f3SGuNVtnmd1K0a4rnN9Q7keQsrT2EEFjSwlNefl+d92NqR+5YWYQUaHX4Hql3OEHMCJHBYHhHkFKiFXkV8VwPpRS2YyOELxwACL+xnZR+D5/2A+RhNFr739g9z8t2NM12WEVh2zZuRpNMJLEsK9thVfpjvAaEIpNOo1E4ju13dtUSpTWu62bXtziybZIi46aR0t+fl+3SCi6WtLDk0WIkNEhU9nz9Jn5uJoMTcEB7ZJIZbNv2xUSAlEeKSGdXrrTKdobVJJNJhBCEQ+H8ylJKpJB4yjtqW9d1UUqBpwgEAvlj2dIm42WOLWA9hFVU1fc7RYUVfPxjH8TR2Q6Lfo/adg2jfEwWtcFgaI+LpiUJGdcfM3K9nQEsSyKFRmQn6VpbmrnrzjsJOg69e1VyqKmB++67l4JYlIryMtB+W22hoe5gHbU1tdQfrKOxoaHTJRQM4tgOibY2/jp/Po5tU1xU5J+X65JItHHnnb8iGAxQWVWBZUvQHggPrRTr16+joaGBgngBgUAAgGRbG//5ox/St08fysvKfOtMKSSChvqDLF+ylNKiIsLBAJl0ih99//vs2rGTQQPOIRIK+ZORuU61WmWHUr/brJSCfftruf3229i8aRMrV66gun8/CgpiKK1wvQyvvrqcDRvWs3XrFn/ZdvSybdtWqnpV4tg2d//6Tjw3Q6+qSiwhsKUknU7yP7/4b4YMGkQ0EvbFDf85uJk09XUH+dX/3cGokSOIRMIINN/77ncJBhyqqiqRtvQb+uUH/BMZ+Y9cN5nIUF4WIGAJrHxhhaMrLBiLyGAw9BjNzc3Mnz+fbVu3IJRm+9YtrF/7JgXxAlLJBLW1Naxdu4ZIJMrMWZdw/vkXEI/Huf+Be3njjTdIp9M0NjYScAKEw2HfqtIax3H42r98jbFjx+I4FjU1e1i0aCE33PBpRo8eSygUJhwOc/DgfixLYtv+UCeynVJr9+/j2ecWMGnSJIoaCrCdSppbDtHa2kJjUy0HDu6kuCQEQFFREUIKLFth24JwJEg0GmXFitfYsWMHy5cu4/f3/57L58zmhhs+Q3l5JaBQCDzPQ5HxpxqFJOAEaGxsZN68eTz//As8+eTfuObDH6aoqAjHcZg/fz5KeXlhDDoBXl+5kv79BxAMBvCUb8mMGzWaglCUHdu3cdllswiHg9lpQs3iJS8z7fwpuCpNzb69lJWW4jgOAI5jsWzZEpRy+e///hnJRAKtNVu2bmXv3l08+th8kBYXTZ/ORTNmEgmH35HPiRgwboruXz2aJx67m4hSfq25nEUkxRHBCibW22Aw5NBak8SjtgFaEwKdswTITq2hyWSSuK6L0Iq2lhZ+dccvqaysYPbsy8lk0tx///3MuvRyJk2ejBMMIqWVn4oTUpDJZPjRj35EVVUV11xzDWVl5WilUFodMY3kuh7r1q+jIB7nscceY/v27USjUTZs2EhRURGRSASAj//9tZx33nhWrVrF7+79LZMmTaJv375UVlbS2FjPwYMH+duTT3LRxRfTu3dvAKZOmcLv7r2Xla+tpK21jWAwSDweJxQK8dWvfpW+ffvy7f/4Hjfc8BkGDhyI5QTQWuNpwc9//nOaD9Vh24JAIIDrurz66qsMGzaUQCCAbdtUVlXxkY98hKLCQubPn8/0GTP57T33UFNbQ7K1jcbGRkpKSrBtG9u2ufXW7xGPF/Dd736XV1e8RlFRMVIK/vXrX8exbW679Va+e+utRMIRbrvtNm6+5Waqq6txbJsDBw7yjW9+gx/cejvRWJSmxiZa21q59dZb+fznb6SkpJhYvJiKPr1B2tlpw5MPVmisa2Xk8BhRR+AosiKS/yVP3iLqqegLg8Fw9qG1RqFxnACO4yC0IhYN87Wv/RO/+MV/s2fPbqZMmcI3v/lNguGIP9gJC43Oj1FKef50GopIOITWHhk3hRTyiMHxySf/xooVr3H11VdTVlbOjTd+nkDAIZPJ8O1vf5uPXHstkyZORAiB53pIIYhGI4SCIdatXcfkSZOpqKggFg2ze9cuQuEwvXv3pl+/fgCEwmG+9KUvUbu3lk0bNzF06FAWLVrE6tWr+cUvfkFLcwstLQl+8T8/p391f2747D9QUlqKdj3GjBnF+PFjKCkuRAiBUoqbb/4K119/PZWVVWQyaUpKSohGomRcl0gkQltrC1u3buGSS2bRP3sOyvPF9ze/+Q0NDY1EIlGuu+466hsb+PSnb+DOX99JJp3hv37yX8y69DIsabF582aCwSA//OEP+fnPfkYsFuMnP/kJ9fX12AGbUCjETf9+k+9Pc13uuuvXOLZNWUVv/vVf/5Xi8ooeClo4WtjsnABJ3ZlOGQwGQ9doLRBIpMiG+2Z9Qv64otlXu4fHHn2UzZs2kkklsSQ01NexY8d2/vSnP/n7yArLpEmTmHXpLJYsXcr2HdtQnoenFBs3raeu/gD7D9QipZ2NdRDYts3cuXO54ILz2bFjO/fddx+f//znGDrkHNAZHBscGzLJFtKpViwrG2ItLF59dTkXXnghLyx8gWQqye49u3nooYdY+9ZaotEo9937ALnR8Prrr2fmzJkUxAuwbX8Anz79Ynbu3MGkSZN4a+1bjB0zFtuWvLL4FTJuK4g4GpfW1noO7Kuh9VAjjuNQUVFBeWkZ5aVlvPjCQtavX8dnP3cj0WgBrpsmnfbwPFBKsGvXHnbs2IGnPCwpkdKipS2JQqKQDDhnMAMHDKQ8K3rz//xnkm1tPPXk33jhuecoq6ikV69ebNq0hS2bt3GOgpaWNhzp4KUzCKUJ2A433XQT1dXVSCnZvm0bf/3ro1i2hSUEnvCOCpiQHUO029Nd9e3jCd/WnGoSk8FgMBxJLBZnzuy5TL/4AlKJVh588H7mzr2ccedOQEobEGghUEpTVFREPB4nHo9TEC9AaTcbtaaorCznjdWvU92vP/37n4NlOYRCIeLxAkpKSvnkJz/JK4tfYdWqVTxw/z00NNQhhGDXrl3U1Ozh/gfuw3M9LrjwYj78oQ9TU1PD6tVvsmf3bn79619z0UUXcdOXb+KOO+7guus+zogRIwCBlDaW9KPpDmUyLF++nHvvvZdrrvkQUkrGnTuOjZs20q+6DwWFcVasfBUhNUJoNIpXX1vGcwsWoJSmsaGR73//+0SjUVzXZeXKFcyePZvS0lK08iP9ciHV4XCYAQMGUFpanI+QA1izZi3gR9YdOLCfkSNG0tzcTJ8+ffj0pz6N7dgopSgvKwcpCYXDjB49msKiIjZu3MS3vvUtvvP//iMf/u5mMvz+wQexsj60VCoFSITyjROEH8otj3vGrGPmqTocoNBNRJ4JVjAYDKeARnfWZ0YI0Jri4iKKCgtIJVu55+67aGiop6ysnMKCApQWCCFpSyYpKiqgpKQEy3aYOWMmiBkgFK6bYffu3VxyySyUUsyceSmTJ03BsnwR8/NyFPFYnJEjRgKKiRPG4HkZ7rjj/7jmmg8zdepUwuEIlrQJBEI4TpDPfe5G6uoO8qtf/YqJEycyc8ZMhBBk3Ax/+ctfKC4uRino338A06ZNZdWqN3hx4Qs0NTZw3XXXEQjYtCXaOLD/APv37aehvoFMJo3rujTU11NeXo7neVz5gSs5b9x5bN60mXvuuQeAyspKNm3aRFvb/2/vzMOkqu68/zn33lp7q97ovZulaVZlE0FAoDXEPSExxqBJ3sz4hphEkzwZnWded+eZjMlokpm8eV3QLKOCSzSKBqK24oqgqKA2CHSjNtpAb/Tetd573j/u7erqrVqBpsE5H54GuqruOfeeqjrfe875ne+vh9LS0rgwWZZJZmYmhmEQDodpaWnBNKNIae85Mi073D0aiQLw6af1pKam8uorr1JWVobL7eL222+nqamJaDSG0HS6e3ooLSlh9uzZnHrqqWiawHAZ8bcrNTWVRYsWkZObixCC5uYmXnv19eP26elFCZFCoRgVhBB0tHfS0tzCQ+vW8s5bb4AwefjhR9DE45hSYpr2vp3JU6bwv777PcomjMeSvdk54cCBA8yYMYOSkmJnam0wlmXfhf/3f9/PaafNZemSM3j33e34/anMn7+AoqJS1q1bx5lLl1E+sRAhNDIzswgEMvH7/RQVFVFbW0teXh7fuPgbdHZ1IqXkib+ux+324PF4aWpq4pSZM8nMDFBYWMS9991Nw6EGfvvb39JyuIU9e/fg8bgwdIOqqk3k5OTR1tGJYbhxuTx0dQfxp6Th8fpZtnQZd/z6DiorKxk/fjymaW9E7ejoxOv1kpmZyYoVK6ir+5hQKMiLL77AgoULCQQCLF++nEBmAE0IKioq+Odr/4n9dXXccsstZGdn097ewdVXXU1efh4WGq+9+hrbd2zH7fbg9/sJh0P92i5mmuytqeHjjz8GoLu7m2g0Gn9ek8cnfkAJkUKhOPY4rgV7a2rZVV3NueeeS35eLocO1nPJxRczubwcC3tE9PLLL7Nr9574hk8dge5y8e5727nr7rv41re+RXZ2NrFYDLA3dGJa3HvvfVRWLqe8vJxXXnkVKSXjx0+guaWVp5/eyMqVX6OsbCJ+n4/i4lKef66KtJVpZAQyue2226ivr6ezs52ysjLOPPNMXC4PTzyxnoqKCvbtq+X00+fz9a9fTCAQ4Dvf+Q6hYDdvbH2DcePG8X9/93s6Otq4+ZZbmD9/Pm+9/RarV69mxvQZaC4XPp+fV17bytx589i8dStPrV9PxZQK/KkpPP98Fa2H25kx/RR6ukPcvea/uPzb32bLli2cccYZ+P1+tm9/h/HjJ3DJNy9mz57drPrWKp566m8Ee9rtdTmhk5KSxozpM2g4dJCXX36Z8knlmGaMwqJCCgsLMdxetr35JqZpuy/0RhlKYU+gWQJa29vY+cEuNGeDsLQkaWkZ4GzCbWps4tmq5/nyl88hJyf7GG14HWwdpIRIoVAce5ypuVmnzmLm9JkIJJ/U7WdfbS0bNz5DRnqG3SFKycGDB3C5PXFnBUvCC889z7qH1zJlyhRKSydgmiAtAWiYMYnUTDo62olGbVeDl158kdKyUnJycln34P0EAlmEQhGefaaK+vpPOXSogb179zJ79lzmzs3mpptuwjAMbrjhBk477XSmT5uBx+vl4ou/zpo199LR0c43vnEJfr8f04yhxaP0JEjJwUMHuevOO4lGopx77rnk5IxjzT33cfnll7PgjEUEe8K8/dZ2Zsw4lf11nzB79lxWrlzJn//8Z97cuoVxeXk8uX49p55yCq2trZimya5du1i4cCEPPvggDQ2NXHHF/yY9Pd1uTk2wevVqrr32Wqqqqrjooovw+/1UV1dz3XXXs2bNGrbv2E4sZvLKK6+QlZVFzJTsrakhGo32W2eyLYls/H4/t956K2XFRQgh2PXBLh599HE7wlBabNn8Ok/99UnqP/mUq666ipSUlFGJJVBCpFAojj0J3m6apiGkpLOrk67OLgLp6fb0jxAITRCLmkiixKIxpAX33ncvL778Iuecu8Lp5LOJRCK4XC7uuvP/4fWm4Ha7KSoqsjvjnTs53NrKBRdeQCAQoKOzk90ffMD+/XVkZmYxadIkzjvvPLxeL9XVOykvn0xeXh6apqFrGm63C6FpxGIxFi5YyJQpU1mzZg333Xcv11xzLeXl5WzYsIGXNm1iyeJFbH59M3//+0ZKSor5qbNHp6x0PH6/n8cee4yDDY2Ul0+mo7MTwzBYteoyDh08wP/5l3/B6/Nx/Q3Xk5GewT333M1dd9/NJZd+E6/XS0PDIRobG/nggw/40Q9/SE9PN7/59W+or6/HMi1SU1O46qof85dHHyPY08MLL7zAWWd/iWnTZnDD9TeREchgzZr72LrlTVxuFz3BMK2tbXi8HpC2vZJheIhGTaqef5F3d7xDW1sbt956K26XgXTWoCLhGDfffDM33nwLX/3KV9i7t4ap06fHNwWPBmLCqQtkadlM/v7kfbiwMNSGVoVC8RmQUhKUJg1tGsGQcNyape0O1msb5xh8CilpajzI4cPNlBQVEUgPIIVANwwOHDhIQ1MT+fn5ZGXlsL+uDsNjkJUdwO12OR51kkg0QnNTC6FQBKHpFBQU4Ha76Ohop76+ngnjx+Pz+4mEw0QjEfx+v+02gL1Av3v3brweLwUFhXi8XoSQVFVVMXPmTPLz8/umrpzRw57deygqLiIjPZ0DBw7Q2dVJQUEebrebQ4cOkZkVIDU11TEddRGLxdi/v46c7Fxcbg+fHqhn/PjxGMLAsiTVO6uZXD4Zv99LOBJyIulaCWRmkpKSwpatW5g2dRo+nw+3y01TUxM73n2bSCTKsmXLSE1JJ2bGiEZjSAmNDQ0UFuaj6brtNmG4eOLJJzj7rLNJS0vFcLnZtm0b+2o/5JxzziEtzU9PMMiGDRuorKxEAJFIxN5HZMbo9cMzdA+GSyc1PY3NW7bwxBPrueaaa+JtJJNucO0fNWdvaA2QYoDLEgkbWqGfQ3mvs8KG9ffhk8pZQaFQfDaklAQtSUObIBi2nRWQMj7t0ydGFkL2ipSMp2KQQvbKVt90j+z7XTqv63PHBhAIqdHfZztZWog+12t7D5HlvFTEQ6yl49IghR2JNzRaQgiz0ysKK6HsxArtnrJvM+jAnnNgiPPgntV2DdeQTqW2OFpOOyR04HJwoh5d0+11oQFzaELYQmMJex0ucbPqUOHZAtuiycIkLSPDfj+kdhRChJMPgvg1xU1X4w+OkC9CoVAoPi+2i7YOpkwQE4jnG3JCuAHn+biMIaUZf12/Q51fpCURTqIbIYZPfdC7UC+l3fn2SaWd9kHiOHePsPZh9W7kTHydGKLbHKhLg8od+ZZeIrGkSX8D7cE5mrQhztnEwhS2gezAUnsfsgaIyWAHBVtQ0gIBTBl1bgpGD7VGpFAoRg2JZYdXSwtpmSBj2L2h5YygdHvxXBe4PR5MU2LGTGpraigszCcQCBAOh5FW7522iAuJlBJh2SITDoUxDN3JYdR/hNQrRLpuMOh+WyTmITp2cz5DjpSOE1JKNCEGjBrh87lo221hWtKJ0hvda1FCpFAoRgc7FwK/+91/sf3tt53O0cKyYoSCQdBAaLYQub0eLrvsMpYsWYrP5+Hxxx8lGo3w3e9+h3vuuYfde/bgdrnsvUQWhEJh8vLy+MnVP2Ha9GlUvbSJ9evX09PTTSQSBPryCgkhsKTE5/XzL9ddz7SpM7Cn6STSnk0cLFBDoIkohq4jpUUkFqG7u5NwKITL7SItJcvZZGtjWbYYID5/lutQMERHRwdZ2dnoruQJ9z5fyu8EoU1m0wP9rXmEwHTE7ViKdaK4KSFSKBSjiORbqy7la1+9CCFAF5Ktb2yltmYPi89cQmnZBDtU2LLIHZeLz+dGSosfXrmae+6+i+ee/TvtrS387CdXMW3qNJ5++mlmTJ9JSUkJf33iCUTC4sZpp53GGWcsJCMjhbVrHyAnN5dlS5eREbANR//0p/sRUvQbrVTvfJ/i4iICgQzsxfrk2U0ty+L96vf405/+SP2BTxFC4PV6uPWWf6esbDyWaXfgW7ZsISs7m4kTJ+LyePsys44wUpJS8uT6J1n/5HruuON2CoqLkznjDDr2mI1cEoVKDD0FeCxRQqRQKEaVvLxxPPrwI+zaWY2QJk1NjXR3d9La3o7hsrOEFhUXcd5551Nc7EMIyEjP4Gc/+xmaJvhFfT07tm+nZm8NmzdvpqGhiSVLlhCJRIA+CzPLssjPyyMnN0B6RgaBjAxycnPIzMwkGrXDw+2MqsRtczZs2MCll36TvHHjQBiEwjGklLjdLiKRKFJiZ4p1iMZi/OGPf8Tv93Hbv99GTm42Dz/8CFVVVVz89W+QkZGBx+ti7doHOf30BeTl5ZHt86NpGjHTxDIthG6X15sa3M4jJOIu2CtXruSCCy7A7/fHxUXTNEzTnua0ncXtzb1OUXGR6/1xGS5M03JSvh6nN/ooUEKkUCiOHGGB0Eje22nsrN5JamoKc+fMprZmL/v21TB71izG5Y1j376PONjQQDAUxLQstm55nU/2f4rf72XJ4sWYpkVBQSHFxcVs37GdkpJi8vPz48njetm7dy+33XYbhqHR0twEwOZXX8cwDFwuF4dbOuIjhkceeYS9NXvYuWsHjQ0H8Xp9zDvtDM46+0tkZmbx/vvVPP300zQ2NpKbk8tFX7mIivJJIO0sp7NOXUB6Rjoul4uLLrqQv294nra2Np555hlqa2s5dKiBrVu3Ultby7SZp3DeeeeRm2ubm/7+979n0sRJvPPOO7S2tnLe+ecxb9482lrbeOzxx+joaEfTBFdeeSX5+QUgYdPzL1BTU0MgK4tt294kHI5QWVnJ+V/+Ml6vh2g4wrq166jetRO/zw9IKivPZtGSxbicfUSDnLGPM6YGw000KiFSKBTD0BcyPRTCcU/oWwUZ/Hoh7Og2n89HaWkpkyZOpKuzncbGBiaMn0h5eTmhYJTDh9uxTOjpCdHe1s2HtTV0tLcyfUoFghi1NbtobjpAqKeDjz+qBcuk7XAzmm1WA0BpaSmzTz0Fv9/Lpk0vkJaaxvz580nPSCccDvP4Y0+iSQ1hacybcxqlxSV0trdw+ukLKCoqITsrF49mYEh4+IEHyMrOYkXlcrZt28avf/VLbrrpJiZMmEBBXj4bNmzA6/NRuXw5Odn5rFp1GampfoQmKCws4qOPPqK0tJQFCxYwfnwpKV4PsXCEaCRC9Xvv8vKLm5g7dw5zZp9CXn42QpikpHo4ZcYUtr2xlerqaqxwDy7LDqQ4fPAgr7/4IhMnl7NiaSU1NTX85YG1LJo/h4nlE/jjn9aw/qknWfnVlaSlpfHQunVUTCnHjM3DLd0J61/WwLfoGDNwDUmLh8sP5Y3bixIihUJxFDgRavEOJqGnEb1/2ZtamxobqavbT2vrYULBIHV1H9Hd3cnBQ/XEzIgzJZfGhRecR3FBDk89/RSxWAyP283cOXOZOm0qZ591FgiNgoJCHnn4Eadse4+S3++nrGwC+bk5vLPtbdLTM5hQNpHs7CwikQherxecKbmKyZOZXDGRl159hpkzZzB16gxnXURQU1PDnLlzWLx4Mbm5OVRWLuNf//Xf2LhxA9/85iVcd911NDY38eijj/KPV1yBZUmuveafmTVrFnl5uZSWlvDk+sfJLxjHafPnEggE4vuAwMLrdfHb39xBcXGx3UyGZgcExEwuvPACkFFq9+21W9fZ4xSNhvF5vfxg9Q8oLipB03R2795Nd2cnHa1tvLllKzdedwNz5sxB13U2PVuFgfgc6RvGFiVECoViVJCWpK39MN2dXXR2dTJ1WgVTpkyhra0Fn99Hfn4BFRWTsaSgo6ML0zSJxmL2/hchnGRwgnAkwqeffspLL79ENBql9XAbK1d+jZ6eHrseCR0dnWx+7TU2v/oqbsOgo70Nj8fDK6+84qzPxIjGesO0k9PY2EhGRgCPx4OmCbxeL26Xm7a2Vrq6usjLy6OwsJDvf//7rFq1igceeJBt296koKCA/Px8ez0qZjpZZwfXF4vFiMaiCM0Oi7acixBOXiZLDq8eA4tze+y05KFQEL/fh9vtQkqImrGTaluoEiKFQjEqSCnZsf1dNm78GzV7dlNbu4f1Tz6BtGIEgz3U1tbg8/no6OomFArT0NTE9/7hHymfOAmEQGqCrmAQy7IX9eefNp/FixfzzLPP4ff74/W4PW5aWppZtGgRX1qxgnE52dx9110UFBRQeVYlGRkZhIIh7rzzbjt7kkzYnin7r28JTVAxpYKNGzbSVdFDRkY60WiEcCRMYdF49uz5gP/8z9/w/dU/YPqMGeTn57Ny5de45557iEYiaJqG5uRIEqJvJ09/d4i+x/r9rgnb6cFKmEhz1nWkZiH13tGn5aTKsEeCbo8Lw6XT0dlOOBLC5XKBNDmZHAqUECkUilFBCMGixWewfNlS/uNXv2T6tCmsOPtsUlJ88aUDIQTb3trGG29sY1llJRMmTsQS4HK76Ozs5Pbbbyc7O5upPj873q/mre07qK8/yMqVF2Ei7ZxGsRj19fUsXHgG+fn56LogNSMNt8+L2+vF47N/DI8LS1hYwnZsEEiCXT3UfVRHcUEJXT1BcnPHkeJP4b33d5CVHSA940yefeZZPtlfz6WXXkJJaREbN27g4YfWsnr1anJzx/HiC1Xk5WaTkZ6K27Cj4DQk1e/t4JwVX6Knu4ecnJwRTUOlJTnUeIjDLYfRhEZj0yEsaVFUWITmpFOXAkwpsSwLCxl3MB8/YQK/v/NObrzxRgoK8gmpEZFCoVDYIuN2exDSwozF8Pt96LqGZdnTVhJ71BQOhwmGQui6bhucSsnumho6u7s49/zzKSkqYtq0qcyaNYvu7m7cbg/jxo3j4MFDTuqC3fT09JCRno5hGJjStMcKAmLSwhKC1sOH6erpHmS3U1hYzAMP3M+9a+5l4qQKfn7NzykuLmbp0jP5y2MPs3bdH5DS4tJLVzFl6gT8/hR+9OMrWbv2IX7605+h6RqZgSx+9KMfx9eCdE3jyiuv5A9/+ANXX301Obm5/PyfrmHSpInx6ThN0x0p7JOLPXv3cMft/0FnWyspfj//9otfoOk6d/z611iadLLUWfbeKWnFU5J7fW5+8tOr+dWvfsmNN16Ppgm6urpOhqjtOHHT0789dR9+60QxPbWOa219dXKc600elTR6dfaGrxzvehmDOtW1Hl2ZJC2vx4rQ0AbBsC0syD5rGTV5KaAAAAsoSURBVNvc1MKla9x6880sWrSQ5UuXouu2qWl7ezv3P3A/L738MnPmzOOyyy+npKwUIQR7du8kxe/jrbfeYvrUaVRUVMRHFM9XPU9VVRU5Odlcdtm3+dvfNqDrbi44/0LyC/KJmVEeePABxo0bx+SKCh555BF2797NtKnT+d73vkdxUQm9pqfhYDedHZ0IoZGamo4/JRWAaCxIc0sjoVA3Pp+HzMxsZ/3Fvrbu7iCRcNjZc+TD5/Nh6IbjeacRiUZoaW4mHInh8/tJTUuzj7ckoXAYr9cb35/U6/MW7AkSjYQQCQZzMcskNS2NaDSKJnR8Ph9C2G7bzS0tZGam4PN5aW5uttemTBOfzw5q+MmPf87ppy9Ac3uR6E749vHt59paupk+JZ0Ulx04oQ/zUVJpIBQKxRFhp4GIDitEvRY/utAc52ir7/HekN7E8gTx9RsN4ay19CZzS1hjSTx+iLKSOwwkCrU14PX9RXzQuo4wh3IwHVyDU7e9UXWkPVZ2kfHztfrSpA8sc+AaE4AuBJZpsWnTJh566CFiMYtQKERl5TIuvWxVPLGeXY92nPrzvlp63bd9usRjX+ig5rBIdN/mM7WxQqFQfC7MuAD1t40ZisR+yup9gF6tGRgaPkxZQzliD0mfm/ZQr5f9wtIB9M802IyXpemfeZ2mT2SHHtEOuv74cYJoNMryZV9i3ryFHDrYgMtwMbG8FDQNiTnomBMRtUakUCgUJzEejwfQCAQyCGRk2g8KE+skCldQQqRQKBQnKVL0yU2/nEEj2XKfYCghUigUii8AdnK/3uk7HQuTgStBJ+o6vxIihUKhOEmRmrP+NnAANFK+oROMk+tsFQqFQvGFw9Bk/+lEKYYMzlAoFArFicZJNPKRgyO34xgaFvaPs/AlSAiZTJ6mVqFQKBRjhxy056Z3VDFWYdtD5zzSHHPXREWJJ/0DDCEtNGlvPJNYWPHNVdpJZRGhUCgUipOTk2dcp1AoFIovJCpqTqFQKBTHhX4Td0LEJxLViEihUCgUY4oSIoVCoVCMKWpqTqFQHDFCCoTsNeq0fbPj/x/CYTvhQE6mDKKKo0X0ZSkZAqPvg2NHyvUepElNuXErFIrPRnwD4mcUGDm0y/QxQQyXJlvQm1576OdG43w07FDqZG2iJ3l+6HDo/uUfSb2jMxlmDSjX3hxkI8TwtaoRkUKhOCKEEIh+N7In+ggnmUiOJKAn2yrGcIKLnSBPJnu/jv21jiTxJ1vrKhQKheILhhoRKRSKLxYyiSPMka5NHY2VjkiyOILllD3cWpo5wrF6kmOHmdaTFkc1BknWFgIsp15tQDNrSapVQqRQKI4YgcXePbuo+6QVKTQGJTU9kZBOavEh111GaY1ICkcQkoif1IfOHyS1JOtdvQzTs0vNqXe4NSZthOc+P1avRZxTriVAxKJMqzgLgStpsUqIFArFEaPrGrNOnUbFFM0RIjG2QqQirEZGyFFrJ0szkc6ISEjQhSTD5RrxM6GESKFQHDE6kqxUA5mqxe/blRSc6IzmO6TTa23aO0GqJ86GDh++rVAoFEeGwEDDxMJExKe3xlaKxuIMkgVZjzTRNVKA9pGSrN6jqTP59VgIp3QNw6lp5Kk+oy/ML3HuVNjzeyoNhEKhGAEd/X98T3E01z8WbTd6dWr0Fx7tM90VqPBthUKhUIwpSogUCoVCMaYoIVIoFArFmKKESKFQKBRjihIihUKhUIwpCeHb/d23FQqF4n8MyVx4PgdDhUWru/2RMTSpYWmWE67dZ9Ut0BIMvIdiNJt3LN7OY2t3ceKSzGtrNHdgDFXvaO/4GKtrTaz7eO5qGe56k5/DWLbSmJDMgPtIESPszUlW9nANPJI4HiPxTFr+SAyq/8jSVhhSyr5KHa8oO69IsoLHonM+0rwcx6KOsRKj0eq8k3VYx3NXw0gGlKN5rUmMJo8pA+sfi6594Nb2sRDGL6SkDWKob+tn2tI52qIyJCdOf6dZSKLRGG+9tR2BQBNf/A+LQqFQKMYeKSWxWAzDMmM0Nzfy2uuvc/rpcwBbD2U87W8ivW6uoz0eHC3Ti2QM51Q7VsLc2w7HekQ0XLkwundCR/K+jua1jvYU5HCjWYZ4/FjXLZDOj/1HOt9n+5n+r+m7GR/eDmwsphlH4ihSjYshrmPEwbnz2R0uBUKS7KNgJZl+c1ywpURan/d6NMRQrt3Oc/G6h3x6uBMa4t1Pdlr9BvvSSRufUGdiPcO0nbAEhmnGiER6eO65F1i6dBFL5s5xhpJ9jkE2vYWP9pRGYtDE5+FoOtHEaxvIWH7xhvriH01nMFKHcqK9ryfjtSZmKz1eKan7ZKdPauxHTOyE0YbzE3VepSOds7D/TvwGDDxrOWoC9HkELrE9j0KEIC7PdlGiz4k66Sk4n13NGrpDdS5j0DScTCJC2KkTNEvap/FZL6Dv6CTHmEmP7NUv4cyASSnj/4+XboGm2Ss2SYlPK4q+f4estP+vlglCCiIRE1E6vkJa3hRwabh9bgoL8zjnnHPICgTwuF30+4hKrf+/o3IHLRmpEYfmaM7FuXMeLifIqF3rZzin0RoRDXknJUAaR1n+cCTLjTIco3itUsNeDzv2ojD8iAhGa1QhJM7dscQSEikkQkrGZQTI9Hvxp/uQPj+WdOPSPFiGRiTSRaylGb27h67uTtpCJhHhJrewmFAkjMvtJpAWINgTBKChsYGuzg40TWBJyeTJk+joaCc1NQWv10skEiYYDNLS0kJZWRmNTY2kpaXidrs4cOAQ3d09lJVNIDcnl717aujo7CQrK4vJk8tpaWmmo7MD0zTp7OjAsiwKCgrx+/3s2/ch+fkFtLW1UVpSQndPN52d7bQcPkw4HLavX9jLCkLow7S7fXMtnNd6XR78bi8etxvDpaO7Xei6YODKhBACIezcPr2jD+kIl2laxKImCIvuYA9t7e0EI7bUGy4DzXDbnwIB4UgEa4ihhcmR39pLCZY1dL4iITSkHPr7JoSOphlomo6uaXg8HjTdcczWdVwCDOc5Qxek6TraMH1yJBKhu7uTSCSCabiQLi/S5QEElmURjUaJmSaaELg0DQHEnGNDh1uoq9nHezuqEcWlk2TE5UN4NITLQtNBNwSG0NETv8BSB+lxOqpEMTrGCBO07oR6B9QhAMs7+LiRMiiKGIgIg89Z2nUOqqfPABbLbV/7sFhO2cPh1IFg+OyRMqHDTCYICXdwQ5YrnXOPDSM2w3XO0q7T8g9T79FiMWzGyGFJvNbhMJ0ByFDt2tsWYyBEw2UClcdeiCwBlgamZosQSGKaicBkwbRTOHPuHMqmTsDIzMayvGBpRA2Boceoe3sbnZ98xEcff8SHB9voslx4MzJZuryS9o4O6vcfJD0tgwkTJvL665uprd2D0Ow75Suu+AfC4TDBUA8ej5v9++soKSmltraW2bNns2XraxQXF9PQ0ERBQSF54/LIysohxZ/GO+/sQBM6tbX7WHLmEuo+3kcoHMTjcfPue++xv66OFStWYLhcpPjTmD17HmsfXMeMGTNobmnkww8/5JNPPiEYtEWyT4i0YT73oEt7JGQIgVtzk+rzk5+dTV52FqmpPlxu9yAxsoVI2EKkRbGlQ2BZEI3ECIXChEIhGptbOdjQRHdPGCkFbrcbhI4wNHpCISKxWHx6tB+aYY86AMuyBn1khCaSTNlpiIFpUHuPQ0cSYajPoC1ABkLoSGnh8Xjx+rxomoah6+hEcRteUnxppHhcTCzIJNXnGiTSYAtR9c73CIVCRIBOXSMs7ZQg0ViUSCQSv1lIcbkQ0o3pCLKMtBOLhdGli/8PC/oClJC1144AAAAASUVORK5CYII=;" vertex="1" parent="1">
                    <mxGeometry x="140" y="80" width="418" height="413" as="geometry"/>
                </mxCell>
            </root>
        </mxGraphModel>
    </diagram>
</mxfile>